<?xml version="1.0" encoding="utf-8"?>
<!-- Generator: Adobe Illustrator 21.0.0, SVG Export Plug-In . SVG Version: 6.00 Build 0)  -->
<svg version="1.1" id="Warstwa_1" xmlns="http://www.w3.org/2000/svg" xmlns:xlink="http://www.w3.org/1999/xlink" x="0px" y="0px"
	 viewBox="0 0 332.4 351.6" style="enable-background:new 0 0 332.4 351.6;" xml:space="preserve">
<style type="text/css">
	.st0{fill:#9679E6;}
	.st1{display:none;fill:#9679E6;}
</style>
<g id="Warstwa_2">
</g>
<path class="st0" d="M267.6,139.7l-98.3,44.2c-3.9,1.8-8.5,0-10.3-3.9l0,0c-1.8-3.9,0-8.5,3.9-10.3l98.3-44.2
	c3.9-1.8,8.5,0,10.3,3.9l0,0C273.3,133.3,271.5,137.9,267.6,139.7z"/>
<g>
	<path class="st0" d="M155.3,162.7l-123-75.3c-3-1.8-6.9-0.9-8.7,2.1l0,0c-1.8,3-0.9,6.9,2.1,8.7l123,75.3
		C149.5,169.3,151.8,165.4,155.3,162.7z"/>
</g>
<path class="st0" d="M108.3,204c-1.5-3.7,0.3-8,4-9.5c0.9-0.4,1.8-0.6,2.8-0.6c3,0,5.7,1.9,6.7,4.8c0.7,1.7,1.3,3.1,2,4.6
	c2.1,3.9,4.7,7.4,8,10.5c3.6-5.8,7.2-16.3,2.6-32.5l-72.7-44.5c-0.6,1.1-1.5,2.1-2.7,2.7c-7.6,4.4-14.9,6.6-21.8,6.6
	c-6.3,0-11.1-1.9-14.2-3.7c-0.2,0-0.5-0.1-0.6-0.1c-5.9,0-10.7,5.2-10.7,11.7c0,5.8,3.8,10.6,9,11.5l0,0l0,0c3.5,0.7,6,3.7,6,7.3
	c0,2.7-1.6,6.2-6,7.2l0,0l0,0c-2.3,0.5-6.7,1.8-10.4,5c-4.2,3.6-6.3,8.8-6.3,15.3c0,11,8.3,20,18.5,20c0.7,0,1.4-0.1,2.2-0.2
	c2.3-1.2,7-3.2,12.8-3.2c5.4,0,13,1.7,18.8,10c2.3,3.2,1.7,7.7-1.3,10.1c-1.3,1.1-2.8,1.6-4.4,1.6c-2.3,0-4.4-1.1-5.8-3.1
	c-0.7-1-1.4-1.7-2-2.2c-1.5-1.2-3.2-1.8-5.3-1.8c-1,0-2.1,0.1-3.3,0.4c-0.9,0.2-2.2,0.7-3.6,1.4c-0.2,0.1-0.4,0.2-0.6,0.3
	c-2.1,1.7-7.1,5.9-7.1,12.5c0,6.9,5.2,12.6,11.6,12.6c1.9,0,3.7-0.5,5.4-1.5l0,0l0,0c1-0.6,2.2-0.9,3.4-0.9c2.4,0,4.7,1.2,6,3.3
	l0.4,0.6v0.1v0.1c1.7,2.8,1.5,6.3-0.6,8.9v0.1v0.1c-1.9,2.1-3,5-3,8c0,6.5,4.8,11.7,10.7,11.7c1.4,0,2.7-0.3,4-0.8
	c2.6-6.7,8-15.1,18.7-19.7c0.9-0.4,1.8-0.6,2.8-0.6c3,0,5.6,1.9,6.7,4.8c0.7,1.8,0.7,3.7,0,5.5s-2.1,3.3-3.9,4
	c-2.5,1.1-4.7,2.6-6.8,4.8c-0.8,0.9-1.4,1.7-1.8,2.3v0.1l-0.1,0.1c-1,1.5-1.8,3-2.2,4.4c0,0.4-0.1,0.8-0.2,1.3c-1,2.6-2,8-1.5,10.6
	l0,0l0,0c1.8,9.7,9.4,15.7,19.8,15.7c6.4,0,10.6-2.1,13.3-3.6c2-7.4,9.5-24.3,36.8-29c0.4-0.1,0.8-0.1,1.2-0.1
	c3.6,0,6.6,2.6,7.1,6.2c0.7,4-2,7.8-5.9,8.5c-1.8,0.3-3.7,0.8-5.8,1.3c-13.6,4-17.9,11.8-19.3,16v0.1v0.1c-0.5,1.3-0.6,2.2-0.6,2.4
	v0.1v0.2v0.4l-0.1,0.4c-0.2,1.1-0.3,2.4-0.3,3.8c0,11,8.3,19.9,18.4,19.9c8.5,0,16.1-6.5,18-15.5c0.1-4.6,0.2-42,0.2-91.5
	C144.8,239.2,118.5,231.3,108.3,204z M60.6,209.2c-3.5-1.6-5.2-5.8-3.7-9.5c0.8-2.1,1.3-4.1,1.6-6c0.9-6.4-0.6-11.5-2-14.6
	c-0.2-0.5-0.4-0.9-0.6-1.3c-5.6,2.1-11,6.2-15.8,12c-1.1,1.4-1.8,2.4-2,2.7l0,0l-0.1,0.1c-1.3,2.2-3.5,3.4-6,3.4
	c-1.4,0-2.8-0.4-4-1.3c-3.3-2.2-4.2-6.7-2.1-10.1l0.2-0.4l0.1-0.1c3.1-4.4,14-18.4,30.9-22.2c0.5-0.2,1-0.2,1.3-0.2
	c2.4-0.5,4.8-0.7,7.3-0.7c6.9,0,13.9,1.9,20.9,5.5c3.4,1.7,4.9,6.1,3.3,9.7v0.1l0,0c-1.2,2.6-3.7,4.2-6.4,4.2
	c-1.2,0-2.3-0.3-3.3-0.9c-1.1-0.5-2.1-1-3.1-1.5c-2-0.8-3.9-1.5-5.9-1.9c0,0.1,0.1,0.2,0.1,0.2l0,0l0,0c3,9.6,2.7,19.2-0.9,28.5
	c-1.1,2.8-3.7,4.7-6.6,4.7C62.5,209.9,61.5,209.7,60.6,209.2z M74.3,225.7L74.3,225.7h-0.2c-3.9,0-7.1-3-7.3-7.1
	c-0.2-4.1,2.8-7.5,6.9-7.7h0.1l0,0c0.2,0,1.4-0.1,3-0.5c5-1.5,8.1-4.7,9.2-9.7v-0.1v-0.1c0.2-0.9,0.3-2.1,0.4-3.3c0.2-4,3.3-7,7.1-7
	c0.1,0,0.3,0,0.4,0c3.9,0.2,7,3.7,6.8,7.7C99.9,219.1,83,225.3,74.3,225.7z M129.3,247.4l0.6,0.6l0.1,0.1l0.1,0.1
	c6.3,7,10,15.9,11.2,26.5c0.4,4.2-2.3,7.8-6.3,8.2h-0.2h-0.2H134c-3.5,0-6.5-2.7-7.1-6.3v-0.1v-0.1c-0.2-1.3-0.4-2.6-0.6-3.7
	c-0.4-1.7-0.8-3.4-1.4-4.9c-5.3,7-12.6,11.7-21.4,13.6l-0.4,0.1H103c-0.3,0.1-0.6,0.1-1,0.1c-3.4,0-6.4-2.5-7-6l0,0l0,0
	c-0.7-3.9,1.8-7.7,5.5-8.6l0,0h0.1c2-0.4,3.8-1.1,5.5-1.9l0,0l0,0c4.5-2.3,7.3-5.8,8.8-8.5c0.3-0.6,0.6-1.1,0.9-1.7
	c-5.5-4.5-11.9-6.3-16.6-7.1c-2.1-0.3-3.4-0.4-3.6-0.4l0,0c-4,0-7.2-3.3-7.2-7.4c0-4.1,3.2-7.4,7.2-7.4l0,0
	C96,232.7,115.6,232.9,129.3,247.4z"/>
<path class="st0" d="M27.3,127.4c0.5,0.3,1.2,0.7,1.8,1.4c0.2,0.2,1,0.8,2.1,1.2h0.1l0,0c1.8,0.8,3.7,1.2,5.9,1.2
	c2.7,0,5.6-0.6,8.7-1.8c0.8-0.3,1.6-0.7,2.4-1l-26.1-16c-0.1,0.6-0.1,1.3-0.1,1.9C22,122.1,24.9,125.5,27.3,127.4z"/>
<path class="st1" d="M143.7,221.6c-0.1,0.1-0.1,0.2-0.2,0.3c4.2,2.1,8.3,3.5,11.5,4.4v-32.5l-4.3-2.7
	C151.7,205.2,147.7,215.3,143.7,221.6z"/>
<path class="st0" d="M136.3,4.9c-10.4,0-18.9,9.2-18.9,20.4c0,2.2,0.3,4.3,1,6.4c0.1,0.4,0.2,0.8,0.2,1.2c0.3,0.7,0.8,1.6,1.3,2.4
	l0,0l0,0c1.5,2.5,4.3,5.6,8.5,6.1h0.1h0.1c0.4,0.1,0.8,0.1,1.2,0.1c0.5,0,1.1-0.1,1.6-0.2l0,0l0,0c0.4-0.1,0.8-0.1,1.2-0.1
	c3.5,0,6.5,2.7,7.1,6.3v0.1v0.1c0.4,4-2.3,7.6-6.1,8.2c-1.3,0.2-2.6,0.3-3.9,0.3C116,56.2,107.9,45,105,37.6
	c-1.1-0.9-3.6-2.4-7.5-2.4c-0.6,0-1.3,0-1.8,0.1l0,0l0,0c-7.9,0.9-13.2,6.4-13.2,13.6c0,0.7,0,1.3,0.1,1.8c3.5,4,11.3,14.7,10,30.6
	c-0.2,3.9-3.3,6.8-7.2,6.8h-0.3h-0.2h-0.2c-3.8-0.4-6.6-3.9-6.4-7.9v-0.1V80c0.7-8.8-2.7-14.9-5.2-18.1c-0.7-0.3-1.3-0.8-1.9-1.4
	l-0.3-0.3c-0.7-0.6-3.8-2.8-9.5-2.8c-0.9,0-2,0.1-3.1,0.2c-9.4,1.3-16.5,9.4-16.5,19l79.7,48.8c15.7,0.6,24.2,10.6,28.2,17.2
	l5.6,3.4v-29.6c-1.1,1.1-2.5,1.8-4.2,2h-0.2h-0.2h-0.4c-3.6,0-6.7-2.8-7.2-6.5c-0.2-1.2-0.4-2.4-0.6-3.6c-0.1-0.6-0.3-1.1-0.4-1.7
	c-3.5,4.1-9.1,8.6-17.6,10.3l-0.4,0.1l0,0c-0.3,0.1-0.6,0.1-1,0.1c-3.4,0-6.4-2.5-7-6l0,0l0,0c-0.7-3.9,1.8-7.7,5.5-8.6l0,0l0,0
	c2.2-0.5,4.2-1.3,5.9-2.3l0,0l0,0c1.8-1.1,3.4-2.6,4.7-4.5l0.2-0.3l0,0c0-0.1,0.1-0.1,0.1-0.2c0.3-0.5,0.6-1,0.9-1.4
	c-4.2-3.1-8.9-4.6-12.4-5.2c-1.7-0.3-3-0.3-3.5-0.3c-1.9,0-3.8-0.8-5.1-2.2c-1.3-1.4-2.1-3.3-2-5.3c0-1.9,0.8-3.7,2.1-5
	c1.4-1.4,3.2-2.2,5.1-2.2c0.2,0,17.4,0.1,29.3,12.9l0.5,0.5l0.1,0.1l0.1,0.1c3.4,3.8,5.9,8.2,7.6,13.3V26.1v-0.8
	C155.2,14.1,146.7,4.9,136.3,4.9z"/>
<path class="st0" d="M298.3,101.3c-1.7,0-3.3,0.4-4.9,1.1c-0.9,0.5-1.9,0.7-3,0.7c-2.4,0-4.6-1.2-6-3.3l-0.2-0.3l-0.1-0.2l-0.1-0.2
	c-1.8-3.1-1.2-6.8,1.3-9.2c3.5-3.4,5.4-8,5.4-13c0-9.6-7.1-17.8-16.6-19H274h-0.1c-0.9-0.1-1.7-0.1-2.8-0.1c-6.1,0-9.2,2.6-9.7,3.1
	c-0.5,0.6-1.2,1.1-2,1.5c-2.5,3.3-5.9,9.4-5.2,18.1c0.4,4.1-2.4,7.6-6.4,8.1h-0.2h-0.2h-0.3c-3.7,0-6.8-2.9-7.2-6.7v-0.1v-0.1
	c-1.3-16.2,6.7-27,9.9-30.6c0.1-0.7,0.2-1.3,0.2-1.9c0-7.3-5.3-12.7-13.2-13.6c-0.6-0.1-1.1-0.1-1.8-0.1c-3.9,0-6.4,1.5-7.5,2.4
	c-3.6,8.8-12,18.6-24.7,18.6c-1.3,0-2.7-0.1-4-0.4c-3.8-0.7-6.4-4.3-6-8.2c0.4-3.7,3.4-6.5,7.1-6.5c0.4,0,0.7,0,1.1,0.1
	c0.6,0.1,1.3,0.1,1.9,0.1c0.4,0,0.8,0,1.3,0c4.1-0.5,6.8-3.7,8.4-6.2c0.6-0.9,1-1.8,1.4-2.5v-0.4l0.2-0.6c0.7-2.1,1-4.3,1-6.4
	C215,14.2,206.5,5,196.2,5c-10.4,0-18.9,9.2-18.9,20.4v0.8v73.6c1.7-4.7,4.1-8.9,7.2-12.5c0.3-0.4,0.7-0.8,1.1-1.1
	c11.3-11.9,27.1-12.6,28.9-12.6c0.1,0,0.2,0,0.3,0c3.9,0,7,3.3,7,7.4c0,4.1-3.2,7.4-7.1,7.4c-0.9,0-2.2,0.1-3.5,0.3
	c-2.8,0.5-7.9,1.7-12.4,5.2c0.3,0.5,0.6,1,0.9,1.5c0.1,0.1,0.1,0.2,0.2,0.3l0.1,0.2c1.4,1.8,3,3.4,4.9,4.6c1.7,1.1,3.6,1.9,5.8,2.3
	h0.1h0.1c3.8,0.9,6.2,4.6,5.5,8.5v0.1v0.1c-0.6,3.5-3.6,6-7,6c-0.3,0-1,0-1.7-0.3c-8.3-1.9-13.8-6.2-17.2-10.2
	c-0.2,0.6-0.3,1.1-0.4,1.7c-0.3,1.2-0.5,2.4-0.6,3.6c-0.5,3.7-3.5,6.5-7.2,6.5h-0.4h-0.4l-0.4-0.1c-1.4-0.3-2.6-1-3.5-1.9v31.1
	l3.7-1.7c1.1-2.3,3.2-6.3,6.9-10.2c6.5-6.8,14.9-10.5,24.5-10.5c0.6,0,1.2,0,1.8,0c2.3,0.1,4.3,1.3,5.5,3.1l4.9-2.2
	c7.7-11.3,20.1-15.4,25.4-16.7l0.1-0.1l0.6-0.1c0.4-0.1,0.8-0.1,1.2-0.1c2.1,0,4,0.9,5.3,2.4c2.4-0.8,4.8-1.3,7.1-1.3
	c8.6,0,16.4,5,19.8,12.8c0.8,1.8,1.4,3.7,1.7,5.7c0.2,0.1,0.5,0.2,0.7,0.3c3.1,1.2,6,1.8,8.7,1.8c2.1,0,4.1-0.4,5.8-1.1
	c1.2-0.6,2-1.1,2.3-1.5c0.1-0.1,0.1-0.1,0.2-0.2c0.4-0.4,0.9-0.8,1.4-1.1c2.2-1.6,5.2-5.1,5.2-12.8
	C310.4,107.2,305,101.3,298.3,101.3z"/>
<g>
	<path class="st0" d="M309.9,220.3c10.2,0,18.5-9,18.5-20c0-14.5-10.4-18.9-16.7-20.3l0,0l0,0c-4.1-1-6-4.3-6-7.2
		c0-3.7,2.6-6.8,6.1-7.3c5.2-1,8.9-5.8,8.9-11.5c0-6.5-4.8-11.7-10.7-11.7c-0.1,0-0.4,0-0.6,0.1c-3.1,1.8-7.8,3.7-14.2,3.7
		c-3.8,0-7.9-0.7-12.1-2.1c-2.3,3.8-5.6,6.8-9.7,8.6L196.8,187c-2.3,12.5,0.5,21.1,4,26.7c3.3-3.1,5.9-6.6,8-10.5
		c0.8-1.5,1.5-2.9,2-4.4v-0.1l0.1-0.1c1.2-2.8,3.8-4.6,6.7-4.6c0.9,0,1.9,0.2,2.7,0.6c3.5,1.5,5.3,5.7,4,9.4l0,0l0,0
		c-10.1,26.6-35.3,35.1-46.8,37.6c0,49.5,0.1,87,0.2,91.6c1.9,9,9.4,15.4,18,15.4c10.1,0,18.4-8.9,18.4-19.9c0-1.4-0.1-2.7-0.3-3.9
		l-0.1-0.4V324v-0.2v-0.1c0-0.2-0.1-1.1-0.6-2.4l0,0l0,0c-1.4-4.3-5.9-12.1-19.3-16.1l0,0l0,0c-1.7-0.5-3.5-0.9-5.7-1.3
		c-3.9-0.7-6.5-4.5-5.9-8.5c0.6-3.6,3.6-6.2,7.1-6.2c0.4,0,0.8,0,1.2,0.1c26.7,4.8,34.5,20.7,36.8,29c2.7,1.5,7,3.6,13.3,3.6
		c10.3,0,17.9-6,19.8-15.7c0.5-2.6-0.4-8-1.2-10.8c-0.1-0.5-0.2-0.9-0.2-1.2c-0.6-1.7-1.4-3.1-2.2-4.4c-0.6-0.9-1.2-1.8-2-2.6
		c-1.9-2-4.2-3.7-6.8-4.8c-3.6-1.6-5.3-5.7-4-9.4v-0.1v-0.1c1.2-2.8,3.8-4.6,6.7-4.6c0.9,0,1.9,0.2,2.7,0.6
		c10.7,4.6,16.1,13,18.7,19.7c1.3,0.6,2.6,0.8,4,0.8c5.9,0,10.7-5.2,10.7-11.7c0-3-1.1-5.9-3-8c-2.2-2.4-2.5-6.1-0.7-9v-0.1v-0.1
		l0.4-0.5c1.3-2.1,3.6-3.4,6-3.4c1.3,0,2.5,0.4,3.6,1c1.6,0.9,3.5,1.4,5.3,1.4c6.4,0,11.6-5.7,11.6-12.6c0-6.6-5.1-10.9-7.1-12.5
		l-0.2-0.1c0,0-0.1-0.1-0.2-0.1c-1.5-0.8-2.9-1.3-3.8-1.5c-1.1-0.3-2.2-0.4-3.2-0.4c-2,0-3.8,0.6-5.3,1.8c-0.8,0.6-1.4,1.3-2,2.1
		c-1.3,1.9-3.5,3.1-5.8,3.1c-1.6,0-3.1-0.5-4.4-1.6c-1.5-1.2-2.4-2.9-2.7-4.8c-0.2-1.9,0.2-3.8,1.3-5.3c5.6-8.4,13.2-10.2,18.6-10.2
		c5.7,0,10.4,2,12.7,3.1C308.5,220.2,309.2,220.3,309.9,220.3z M236.8,247.5h-0.1h-0.1c-0.9,0-2.2,0.1-3.4,0.3h-0.1H233
		c-3.8,0.5-10.6,2.1-16.6,7c0.3,0.5,0.6,1,0.9,1.7c1.5,2.5,4.2,6,8.9,8.5c1.7,0.9,3.5,1.5,5.5,1.9h0.1l0,0c3.8,0.9,6.2,4.6,5.5,8.5
		v0.1v0.1c-0.6,3.5-3.6,6-7,6c-0.3,0-1,0-1.7-0.2c-8.5-1.8-15.8-6.5-21-13.5c-0.6,1.6-1,3.3-1.4,5c-0.3,1.1-0.4,2.3-0.5,3.3v0.1v0.1
		c-0.4,3.7-3.5,6.5-7.2,6.5H198h-0.2h-0.2c-3.9-0.5-6.7-4.1-6.3-8.2l0,0l0,0c1.3-10.7,5-19.6,11.2-26.5l0.1-0.1l0,0
		c0.2-0.2,0.4-0.5,0.8-0.8c13.5-14.2,33-14.6,33.2-14.6c3.9,0,7.1,3.3,7.2,7.3C243.9,243.9,240.9,247.3,236.8,247.5z M265.6,218.5
		v0.1c-0.2,4-3.4,7.1-7.2,7.1h-0.1h-0.1c-10.3-0.3-25.8-7.9-26.6-27.7c-0.1-2,0.6-4,2-5.5c1.3-1.4,3-2.1,4.9-2.2c0.1,0,0.2,0,0.3,0
		c3.8,0,6.9,3.1,7.1,7c0.1,1.3,0.2,2.4,0.4,3.3v0.1v0.1c1.3,6.2,5.7,8.7,9.2,9.7c1.6,0.4,2.8,0.5,3,0.5l0,0h0.1
		c3.8,0.2,6.9,3.5,6.9,7.5l0,0L265.6,218.5L265.6,218.5z M304.9,195c-1.2,0.9-2.7,1.4-4.2,1.4c-2.4,0-4.5-1.2-5.9-3.2
		c-0.1-0.2-0.3-0.4-0.5-0.6c-0.4-0.5-1-1.5-1.9-2.5l0,0l0,0c-2.7-3.5-8.2-9.3-15.8-12.2c-0.2,0.4-0.4,0.8-0.5,1.2v0.1v0.1
		c-1.2,2.6-3,7.9-2,14.6c0.3,1.9,0.8,3.9,1.6,6c1.5,3.7-0.2,7.9-3.7,9.5c-0.9,0.4-1.9,0.7-2.9,0.7c-2.9,0-5.5-1.8-6.6-4.7
		c-4.5-11.9-3-21.9-0.9-28.3c0-0.1,0.1-0.2,0.1-0.3c-1.9,0.4-3.9,1-5.9,1.9c-0.3,0.1-0.5,0.2-0.8,0.3c-0.8,0.4-1.6,0.7-2.3,1.1h-0.1
		h-0.1c-1,0.5-2.1,0.8-3.2,0.8c-2.8,0-5.2-1.5-6.5-4l0,0l0,0c-1.7-3.6-0.2-8,3.3-9.8c7-3.7,14-5.5,20.9-5.5c2.5,0,4.9,0.2,7.4,0.7
		c0.2,0,0.3,0,0.4,0.1l0,0l0.4,0.1c17.9,3.8,29.2,18.8,31.5,22.7l0,0C308.9,188.3,308,192.8,304.9,195z"/>
</g>
<path class="st0" d="M211.5,136.4c-1.1,0-2.3,0.1-3.4,0.3c-6.7,1.1-11.2,4.7-14,8l18.5-8.3C212.2,136.4,211.8,136.4,211.5,136.4
	L211.5,136.4z"/>
<path class="st0" d="M188.7,221.6c-3.6-5.8-7.5-15-7.1-27.9l-4.3,1.9v30.6c3.2-0.9,7.3-2.3,11.6-4.4
	C188.8,221.8,188.7,221.7,188.7,221.6z"/>
</svg>
