<?xml version="1.0" encoding="utf-8"?>
<!-- Generator: Adobe Illustrator 21.0.0, SVG Export Plug-In . SVG Version: 6.00 Build 0)  -->
<svg version="1.1" xmlns="http://www.w3.org/2000/svg" xmlns:xlink="http://www.w3.org/1999/xlink" x="0px" y="0px"
	 viewBox="0 0 1500 1500" style="enable-background:new 0 0 1500 1500;" xml:space="preserve">
<style type="text/css">
	.st0{display:none;}
	.st1{display:inline;fill:none;stroke:#ED1818;stroke-miterlimit:10;}
	.st2{display:inline;}
	.st3{fill:#9678E6;}
</style>
<g id="Warstwa_2">
</g>
<g id="Warstwa_1">
	<g class="st0">
		<line class="st1" x1="1431.7" y1="-10.5" x2="-68.3" y2="1489.5"/>
		<polygon class="st2" points="411.2,83.4 1599.2,83.4 1453.1,277.5 269.2,277.5 		"/>
		<polygon class="st2" points="157.7,425.4 1345.7,425.4 1199.6,631.5 15.7,631.5 		"/>
		<polygon class="st2" points="385.7,1159.5 1097.7,1159.5 815.7,1355.5 239.7,1355.5 		"/>
		<path class="st2" d="M1199.6,571.5"/>
		<path class="st2" d="M1142.7,425.4l-295,422.1c458.2,8.5,476.6,510.5,17,508h-220l228-104l0-92c126.6-1.5,124.7-167.5-1.9-166
			l-338.1-6.1l398-561.9H1142.7z"/>
		<polygon class="st2" points="996.2,83.4 50,1346.1 -167.9,1355.4 754.2,83.4 		"/>
	</g>
	<g class="st0">
		<polygon class="st2" points="585,214.3 682.5,0 410,0 312.5,214.3 		"/>
		<polygon class="st2" points="857.5,214.3 955,0 682.5,0 585,214.3 		"/>
		<polygon class="st2" points="1130,214.3 1227.5,0 955,0 857.5,214.3 		"/>
		<polygon class="st2" points="410,0 97.7,0 0.2,214.3 312.5,214.3 		"/>
		<polygon class="st2" points="1402.5,214.3 1500,0 1227.5,0 1130,214.3 		"/>
		<polygon class="st2" points="487.5,428.6 97.5,428.6 0,642.9 390,642.9 		"/>
		<polygon class="st2" points="662.5,642.9 760,428.6 487.5,428.6 390,642.9 		"/>
		<polygon class="st2" points="97.5,857.1 0,1071.4 467.5,1071.4 565,857.1 		"/>
		<polygon class="st2" points="740,1071.4 1012.5,1071.4 1110,857.1 837.5,857.1 		"/>
		<polygon class="st2" points="0,1500 272.5,1500 370,1285.7 97.5,1285.7 		"/>
		<polygon class="st2" points="642.5,1285.7 545,1500 817.5,1500 915,1285.7 		"/>
		<polygon class="st2" points="935,642.9 1207.5,642.9 1305,428.6 1032.5,428.6 		"/>
		<polygon class="st2" points="837.5,857.1 1110,857.1 1207.5,642.9 935,642.9 		"/>
		<path class="st2" d="M1110,857.1l-97.5,214.3c259.8-0.2,260,214.1,0.2,214.3c-28.5,0-60.8,0-97.7,0l0,0l0,0L817.5,1500
			c114.7,0,214.2,0,292.5,0C1567.4,1500,1567.4,857.1,1110,857.1z M1148.8,1071.4C1148.8,1071.4,1148.8,1071.4,1148.8,1071.4H1285
			H1148.8z"/>
		<polygon class="st2" points="915,1285.7 817.5,1500 915,1285.7 		"/>
		<polygon class="st2" points="1148.8,1071.4 1285,1071.4 1148.8,1071.4 		"/>
	</g>
	<g>
		<path class="st3" d="M499,421.9c85.6,359,450.1,933.2,820.3,1073.6C841.2,1561.3,356,883.1,206.3,447.6
			C383,384.5,499,421.9,499,421.9z"/>
		<g>
			<path class="st3" d="M602.5,646.4C1030.7,535.4,1448.6,318.1,1500,0c-186.7,213.5-600.6,359.6-977.5,419.3
				C538.9,487.1,566.2,564.7,602.5,646.4z"/>
			<path class="st3" d="M183.9,454.3l-1.7-4.9c-41.2,0.3-80.6-0.8-117.4-3.5c0,0-77.3,98.7-63.1,286.6c89.1-1.1,189-9.3,293.7-24.4
				C249.5,620.9,211.4,534.5,183.9,454.3z"/>
		</g>
		<path class="st3" d="M935.9,1104.2c103.3-138,198-430.1,134.2-589.6c171.9,129.5,62,513.5-49.1,695.3
			C994,1186.1,935.9,1104.2,935.9,1104.2z"/>
	</g>
</g>
</svg>
