<?xml version="1.0" encoding="utf-8"?>
<!-- Generator: Adobe Illustrator 21.0.0, SVG Export Plug-In . SVG Version: 6.00 Build 0)  -->
<svg version="1.1" xmlns="http://www.w3.org/2000/svg" xmlns:xlink="http://www.w3.org/1999/xlink" x="0px" y="0px"
	 viewBox="0 0 1032.5 351.6" style="enable-background:new 0 0 1032.5 351.6;" xml:space="preserve">
<style type="text/css">
	.st0{display:none;}
	.st1{display:inline;fill:none;stroke:#ED1818;stroke-miterlimit:10;}
	.st2{display:inline;}
	.st3{fill:#9679E6;}
</style>
<g id="Warstwa_2">
</g>
<g id="Warstwa_1">
	<g class="st0">
		<line class="st1" x1="866.2" y1="-589.5" x2="-633.8" y2="910.5"/>
		<polygon class="st2" points="-154.3,-495.6 1033.7,-495.6 887.6,-301.5 -296.3,-301.5 		"/>
		<polygon class="st2" points="-407.8,-153.6 780.2,-153.6 634.2,52.5 -549.8,52.5 		"/>
		<polygon class="st2" points="-179.8,580.5 532.2,580.5 250.2,776.5 -325.8,776.5 		"/>
		<path class="st2" d="M634.2-7.5"/>
		<path class="st2" d="M577.2-153.6l-295,422.1c458.2,8.5,476.6,510.5,17,508h-220l228-104l0-92c126.6-1.5,124.7-167.5-1.9-166
			l-338.1-6.1l398-561.9H577.2z"/>
		<polygon class="st2" points="430.7,-495.6 -515.4,767.1 -733.3,776.4 188.7,-495.6 		"/>
	</g>
	<g class="st0">
		<polygon class="st2" points="19.5,-364.7 117,-579 -155.5,-579 -253,-364.7 		"/>
		<polygon class="st2" points="292,-364.7 389.5,-579 117,-579 19.5,-364.7 		"/>
		<polygon class="st2" points="564.5,-364.7 662,-579 389.5,-579 292,-364.7 		"/>
		<polygon class="st2" points="-155.5,-579 -467.8,-579 -565.3,-364.7 -253,-364.7 		"/>
		<polygon class="st2" points="837,-364.7 934.5,-579 662,-579 564.5,-364.7 		"/>
		<polygon class="st2" points="-78,-150.4 -468,-150.4 -565.5,63.9 -175.5,63.9 		"/>
		<polygon class="st2" points="97,63.9 194.5,-150.4 -78,-150.4 -175.5,63.9 		"/>
		<polygon class="st2" points="-468,278.1 -565.5,492.4 -98,492.4 -0.5,278.1 		"/>
		<polygon class="st2" points="174.5,492.4 447.1,492.4 544.6,278.1 272,278.1 		"/>
		<polygon class="st2" points="-565.5,921 -293,921 -195.5,706.7 -468,706.7 		"/>
		<polygon class="st2" points="77.1,706.7 -20.4,921 252.1,921 349.6,706.7 		"/>
		<polygon class="st2" points="369.5,63.9 642.1,63.9 739.5,-150.4 467,-150.4 		"/>
		<polygon class="st2" points="272,278.1 544.6,278.1 642.1,63.9 369.5,63.9 		"/>
		<path class="st2" d="M544.6,278.1l-97.5,214.3c259.8-0.2,260,214.1,0.2,214.3c-28.5,0-60.8,0-97.7,0l0,0l0,0L252.1,921
			c114.7,0,214.2,0,292.5,0C1002,921,1002,278.1,544.6,278.1z M583.3,492.4C583.3,492.4,583.3,492.4,583.3,492.4h136.2H583.3z"/>
		<polygon class="st2" points="349.6,706.7 252.1,921 349.6,706.7 		"/>
		<polygon class="st2" points="583.3,492.4 719.6,492.4 583.3,492.4 		"/>
	</g>
	<g>
		<path class="st3" d="M387.2,328.2l0.6-0.9c0.8-1.1,1.4-2.2,1.8-3.4c0.3-1.2,0.5-2.8,0.5-4.9v-19.1c0-1.6-0.1-2.6-0.3-3.1
			c-0.2-0.5-0.7-0.7-1.4-0.7h-2.2c-1.2,0-2.1,0.1-2.8,0.4c-0.6,0.3-1.2,0.7-1.5,1.3c-0.4,0.6-0.7,1.5-1.1,2.7l-0.3,1.2l-1.7-0.6
			v-8.8l0.8-0.7l0.9,0.7c0.9,0.7,2.7,1,5.6,1h13c2.9,0,4.8-0.3,5.6-1l0.9-0.7l0.8,0.7v8.8l-1.7,0.6l-0.3-1.2c-0.5-1.8-1.1-3-1.8-3.6
			s-1.9-0.9-3.6-0.9h-2.3c-0.7,0-1.2,0.3-1.4,0.8c-0.2,0.5-0.4,1.5-0.4,3.1v22.5c0,1.5,0.2,2.6,0.6,3.2c0.4,0.6,1.3,1.1,2.6,1.5
			l1.2,0.3l-0.6,1.7h-10.9L387.2,328.2z"/>
		<path class="st3" d="M410.7,327.5c-1.3-1.4-2-3.5-2-6.1v-12.4c0-0.8-0.3-1.2-1-1.2h-2.2l-0.4-1.2c0.8-0.9,1.9-1.6,3.1-2.1
			c1.2-0.5,2.3-0.8,3.4-0.8c0.5,0,0.9,0.1,1.2,0.4c0.3,0.3,0.5,0.6,0.5,1.1v15.1c0,2,0.4,3.5,1.2,4.5c0.8,1,2,1.6,3.6,1.6
			c2.2,0,4-1,5.2-2.9s1.9-4.6,1.9-8c0-2.4-0.1-4.3-0.4-5.7c-0.3-1.4-0.8-2.7-1.6-4l-0.6-0.8l0.6-0.7l6.1-0.6v20.9
			c0,1,0.4,1.5,1.3,1.5c0.8,0,1.7-0.3,2.5-0.9l1,1.3c-0.8,1-1.7,1.7-2.7,2.3c-1,0.6-1.9,0.9-2.8,0.9c-1.3,0-2.3-0.4-2.9-1.2
			c-0.6-0.8-0.9-2-0.9-3.6c-0.8,1.5-2,2.7-3.5,3.5c-1.5,0.9-3.2,1.3-5,1.3C413.9,329.7,412,329,410.7,327.5z"/>
		<path class="st3" d="M441,328.4c-0.8-0.9-1.2-2-1.2-3.5v-17.5h-4.3c0-0.9,0.1-1.5,0.2-1.7c0.1-0.3,0.5-0.5,1-0.6
			c1.8-0.4,3-1.2,3.7-2.2c0.7-1,1.3-2.4,1.6-4.1c0.1-0.5,0.2-0.8,0.5-1c0.3-0.1,0.9-0.2,1.8-0.2v6.7h6.4c0,0.7-0.1,1.3-0.3,1.9
			c-0.2,0.5-0.5,1-0.8,1.2h-5.3v16.1c0,1,0.1,1.7,0.4,2.2c0.3,0.4,0.8,0.6,1.5,0.6c1,0,2.1-0.5,3.3-1.6l0.9,1.3
			c-0.8,1.1-1.9,2-3.1,2.7c-1.2,0.7-2.3,1-3.3,1C442.8,329.7,441.7,329.3,441,328.4z"/>
		<path class="st3" d="M457.3,326.2c-2.2-2.4-3.3-5.5-3.3-9.5c0-4,1.1-7.1,3.3-9.5c2.2-2.3,5.2-3.5,8.9-3.5c2.4,0,4.6,0.5,6.4,1.6
			c1.8,1.1,3.2,2.6,4.2,4.5c1,1.9,1.5,4.2,1.5,6.9s-0.5,4.9-1.5,6.9c-1,2-2.4,3.5-4.3,4.6c-1.8,1.1-3.9,1.6-6.4,1.6
			C462.5,329.7,459.5,328.5,457.3,326.2z M471.2,324.2c1.3-1.9,1.9-4.4,1.9-7.4c0-1.6-0.2-3.2-0.7-4.7c-0.4-1.6-1.2-2.9-2.2-4.1
			c-1-1.1-2.3-1.7-3.9-1.7c-2.2,0-3.9,1-5.2,2.9c-1.3,1.9-1.9,4.4-1.9,7.6c0,3.1,0.6,5.6,1.8,7.5c1.2,1.9,2.9,2.8,5,2.8
			C468.2,327,469.9,326.1,471.2,324.2z"/>
		<path class="st3" d="M483,327.5l0.9-0.3c0.9-0.1,1.5-0.5,1.7-1s0.4-1.4,0.4-2.7v-13.9c0-0.4-0.1-0.7-0.2-0.8
			c-0.1-0.2-0.4-0.2-0.8-0.2H483l-0.5-1.3c1-0.9,2-1.6,3.3-2.1s2.3-0.8,3.3-0.8c0.5,0,0.9,0.1,1.2,0.4c0.3,0.3,0.4,0.7,0.4,1.1v5.4
			h0.3c0.6-2.2,1.5-4,2.7-5.4c1.2-1.4,2.5-2,3.9-2s2.5,0.4,3.4,1.3c0.9,0.9,1.3,2.1,1.3,3.7c0,1.2-0.5,2.3-1.4,3.1
			c-0.9,0.8-2.1,1.3-3.5,1.3c-0.7,0-1-0.2-1-0.5c0-0.1,0.1-0.4,0.4-0.8c0.3-0.4,0.5-0.8,0.7-1.2s0.3-0.9,0.3-1.4
			c0-0.6-0.1-1.1-0.4-1.5c-0.3-0.3-0.7-0.5-1.2-0.5c-0.8,0-1.6,0.5-2.4,1.4c-0.8,1-1.6,2.5-2.2,4.6s-0.9,4.7-0.9,8
			c0,1.5,0.1,2.7,0.4,3.6c0.2,0.9,0.6,1.8,1.2,2.6l0.6,0.8l-0.6,0.8h-8.7L483,327.5z"/>
		<path class="st3" d="M504.3,302.2l2.3-4.5c0.4-0.8,0.5-1.4,0.5-2c0-0.4-0.1-0.7-0.2-1c-0.2-0.3-0.4-0.6-0.8-0.8l-0.9-0.7l-0.2-1.2
			l0.9-0.4c0.9-0.3,1.8-0.5,2.7-0.5c2.2,0,3.3,1.1,3.3,3.2c0,0.9-0.3,1.9-1,2.9s-1.7,2.3-3.1,3.8l-2,2.1L504.3,302.2z"/>
		<path class="st3" d="M519.7,328c-1.6-1.2-2.5-2.7-2.5-4.5c0-1.1,0.4-2,1.2-2.8c0.8-0.7,1.8-1.1,3-1.1c0.3,0,0.5,0.1,0.7,0.2
			s0.3,0.3,0.3,0.4c0,0.1-0.1,0.4-0.3,1c-0.2,0.5-0.3,1.2-0.3,1.9c0,1.4,0.5,2.4,1.5,3.1s2.1,1.1,3.3,1.1c1.4,0,2.5-0.4,3.4-1.1
			c0.9-0.7,1.3-1.7,1.3-2.9c0-1.1-0.5-1.9-1.4-2.6c-0.9-0.7-2.3-1.4-4-2.1c-1.6-0.7-3-1.4-4-2c-1.1-0.6-2-1.4-2.8-2.5
			s-1.2-2.3-1.2-3.7c0-1.9,0.9-3.5,2.6-4.8c1.7-1.2,3.9-1.9,6.5-1.9c2.4,0,4.3,0.4,5.9,1.3c1.5,0.9,2.3,2.1,2.3,3.7
			c0,1.3-0.4,2.3-1.2,3.1c-0.8,0.8-1.8,1.2-3,1.2c-0.7,0-1.1-0.2-1.1-0.7c0-0.1,0.1-0.5,0.4-1c0.3-0.5,0.4-1.1,0.4-1.8
			c0-1.2-0.4-2.1-1.3-2.7c-0.8-0.6-1.8-0.9-2.9-0.9c-1.4,0-2.4,0.3-3.2,1s-1.2,1.5-1.2,2.6c0,1.2,0.5,2.3,1.5,3
			c1,0.8,2.5,1.5,4.3,2.2c1.6,0.7,2.9,1.3,4,1.9c1.1,0.6,2,1.3,2.7,2.2c0.7,0.9,1.1,1.9,1.1,3.2c0,2.3-0.9,4.1-2.7,5.5
			s-4.2,2.1-7.2,2.1C523.4,329.7,521.4,329.1,519.7,328z"/>
		<path class="st3" d="M564.9,328.2l0.6-0.9c0.8-1.1,1.4-2.2,1.8-3.4c0.3-1.2,0.5-2.8,0.5-4.9v-19.1c0-1.6-0.1-2.6-0.3-3.1
			c-0.2-0.5-0.7-0.7-1.4-0.7h-2.2c-1.2,0-2.1,0.1-2.8,0.4c-0.6,0.3-1.2,0.7-1.5,1.3c-0.4,0.6-0.7,1.5-1.1,2.7l-0.3,1.2l-1.7-0.6
			v-8.8l0.8-0.7l0.9,0.7c0.9,0.7,2.7,1,5.6,1h13c2.9,0,4.8-0.3,5.6-1l0.9-0.7l0.8,0.7v8.8l-1.7,0.6l-0.3-1.2c-0.5-1.8-1.1-3-1.8-3.6
			s-1.9-0.9-3.6-0.9h-2.3c-0.7,0-1.2,0.3-1.4,0.8c-0.2,0.5-0.4,1.5-0.4,3.1v22.5c0,1.5,0.2,2.6,0.6,3.2c0.4,0.6,1.3,1.1,2.6,1.5
			l1.2,0.3l-0.6,1.7h-10.9L564.9,328.2z"/>
		<path class="st3" d="M588.3,328.5c-0.6-0.8-0.9-2.2-0.9-4v-15.4c0-0.4-0.1-0.7-0.2-0.9c-0.1-0.2-0.4-0.3-0.8-0.3h-2.2l-0.4-1.2
			c1-0.9,2-1.6,3.3-2.1c1.2-0.5,2.3-0.8,3.2-0.8c0.5,0,0.9,0.1,1.2,0.4c0.3,0.3,0.5,0.6,0.5,1.1v19.4c0,1.1,0.5,1.7,1.5,1.7
			c0.8,0,1.6-0.3,2.5-1l0.9,1.3c-0.9,1-1.9,1.7-2.9,2.3c-1,0.6-1.9,0.9-2.7,0.9C589.9,329.7,588.9,329.3,588.3,328.5z M587.7,298.4
			c-0.7-0.8-1.1-1.5-1.1-2.1c0-0.6,0.4-1.3,1.1-2.1c0.7-0.8,1.4-1.2,1.9-1.2c0.6,0,1.3,0.4,2,1.2c0.7,0.8,1.1,1.5,1.1,2.1
			c0,0.6-0.4,1.3-1.1,2.1c-0.7,0.8-1.4,1.2-2,1.2C589,299.5,588.4,299.2,587.7,298.4z"/>
		<path class="st3" d="M634.8,328.5c-0.6-0.8-0.9-2.2-0.9-4v-11.8c0-3.4-1.2-5.1-3.7-5.1c-1.4,0-2.6,0.5-3.6,1.6
			c-1.1,1.1-1.9,2.6-2.6,4.6c-0.6,2-1,4.2-1,6.8v0.6c0,1.7,0.1,3,0.4,4.1c0.3,1,0.9,2.1,1.7,3.1l-0.6,0.8h-6v-16.4
			c0-1.7-0.3-3-1-3.8c-0.6-0.9-1.6-1.3-2.8-1.3c-1.4,0-2.7,0.6-3.8,1.7c-1.1,1.1-1.9,2.7-2.5,4.8c-0.6,2-0.9,4.4-0.9,7.1
			c0,1.5,0.1,2.8,0.4,3.7c0.2,1,0.6,1.8,1.2,2.7l0.6,0.8l-0.6,0.8h-8.7l-0.5-1.5l0.9-0.3c0.9-0.1,1.5-0.5,1.7-1s0.4-1.4,0.4-2.7
			v-13.9c0-0.4-0.1-0.7-0.2-0.8c-0.1-0.2-0.4-0.2-0.8-0.2H600l-0.5-1.3c1-0.9,2-1.6,3.3-2.1s2.3-0.8,3.3-0.8c0.5,0,0.9,0.1,1.2,0.4
			c0.3,0.3,0.4,0.7,0.4,1.1v5.4c0.8-2.2,2.1-4,3.8-5.3s3.4-2.1,5.2-2.1c2,0,3.6,0.6,4.6,1.8s1.6,3.1,1.8,5.6
			c0.8-2.2,2.1-3.9,3.8-5.3c1.7-1.4,3.4-2.1,5.2-2.1c2.2,0,3.8,0.7,4.9,2.1c1,1.4,1.5,3.7,1.5,6.7v12c0,1.1,0.5,1.7,1.4,1.7
			c0.8,0,1.7-0.3,2.5-1l1,1.3c-0.9,1-1.8,1.8-2.8,2.3s-1.9,0.8-2.7,0.8C636.3,329.7,635.4,329.3,634.8,328.5z"/>
		<path class="st3" d="M651.8,328.1c-1.7-1.1-3.1-2.5-4-4.5c-1-1.9-1.4-4.1-1.4-6.7c0-2.6,0.5-5,1.6-7c1.1-2,2.6-3.6,4.5-4.7
			s4.2-1.6,6.8-1.6c2.7,0,4.8,0.7,6.3,2.1c1.5,1.4,2.2,3.1,2.2,5.2c0,1.4-0.4,2.7-1.1,4c-0.7,1.3-1.8,2.3-3.3,3.1
			c-1.4,0.8-3.1,1.2-5.1,1.2c-1.1,0-2.3-0.2-3.6-0.6c-1.3-0.4-1.9-1-1.9-1.7c0-0.3,0.1-0.5,0.2-0.8c0.1-0.2,0.3-0.3,0.5-0.3
			c0.1,0,0.4,0.1,1,0.3c0.6,0.2,1.3,0.3,2.2,0.3c2,0,3.6-0.5,4.7-1.6s1.6-2.4,1.6-3.9c0-1.3-0.4-2.4-1.3-3.4c-0.9-1-2-1.4-3.4-1.4
			c-2.2,0-3.8,0.9-5,2.8c-1.2,1.9-1.8,4.6-1.8,8c0,3,0.6,5.3,1.9,6.9c1.3,1.7,3.1,2.5,5.5,2.5c2.9,0,5.3-1,7.2-2.9
			c0.1-0.1,0.3-0.2,0.4-0.2c0.3,0,0.6,0.1,0.9,0.4c0.3,0.3,0.5,0.6,0.5,0.9c0,0.1,0,0.2-0.1,0.3c-0.1,0.1-0.1,0.2-0.1,0.2
			c-1.2,1.5-2.7,2.6-4.4,3.3s-3.5,1.1-5.5,1.1C655.6,329.7,653.6,329.2,651.8,328.1z"/>
		<path class="st3" d="M696.9,328.2l0.6-0.9c0.8-1.1,1.4-2.2,1.8-3.4c0.3-1.2,0.5-2.8,0.5-4.9v-19.1c0-1.6-0.1-2.6-0.3-3.1
			c-0.2-0.5-0.7-0.7-1.4-0.7h-2.2c-1.2,0-2.1,0.1-2.8,0.4c-0.6,0.3-1.2,0.7-1.5,1.3c-0.4,0.6-0.7,1.5-1.1,2.7l-0.3,1.2l-1.7-0.6
			v-8.8l0.8-0.7l0.9,0.7c0.9,0.7,2.7,1,5.6,1h13c2.9,0,4.8-0.3,5.6-1l0.9-0.7l0.8,0.7v8.8l-1.7,0.6l-0.3-1.2c-0.5-1.8-1.1-3-1.8-3.6
			s-1.9-0.9-3.6-0.9h-2.3c-0.7,0-1.2,0.3-1.4,0.8c-0.2,0.5-0.4,1.5-0.4,3.1v22.5c0,1.5,0.2,2.6,0.6,3.2c0.4,0.6,1.3,1.1,2.6,1.5
			l1.2,0.3l-0.6,1.7h-10.9L696.9,328.2z"/>
		<path class="st3" d="M718.6,328.3c-1.4-0.9-2.5-2.3-3.3-4.1s-1.2-4-1.2-6.6c0-4.3,1.2-7.7,3.5-10.1c2.3-2.5,5.5-3.7,9.4-3.7
			c1.3,0,3.1,0.2,5.4,0.6c1.7,0.3,3.2,0.5,4.6,0.6l0.7,0.6l-0.7,0.9c-0.3,0.4-0.4,0.8-0.5,1c-0.1,0.2-0.1,0.6-0.1,1v16.2
			c0,1,0.5,1.5,1.6,1.5c0.8,0,1.6-0.3,2.5-0.9l0.9,1.3c-0.9,1-1.8,1.8-2.8,2.3s-1.9,0.8-2.7,0.8c-1.4,0-2.4-0.4-3-1.2
			c-0.6-0.8-0.9-2.2-0.9-4c-1.3,1.9-2.7,3.3-4.1,4.1c-1.4,0.8-2.9,1.2-4.6,1.2C721.5,329.7,720,329.2,718.6,328.3z M731.7,321.3
			v-13.4c-1.4-1-3-1.4-4.8-1.4c-2.4,0-4.2,0.9-5.6,2.7c-1.3,1.8-2,4.3-2,7.5c0,3.1,0.5,5.5,1.6,6.9c1.1,1.5,2.4,2.2,4,2.2
			C727.8,325.8,730,324.3,731.7,321.3z"/>
		<path class="st3" d="M747.6,328.5c-0.6-0.8-0.9-2.2-0.9-4v-29c0-0.4-0.1-0.7-0.2-0.8c-0.1-0.2-0.4-0.2-0.8-0.2h-2.1l-0.5-1.3
			c1-0.9,2-1.6,3.3-2.2c1.2-0.6,2.4-0.8,3.3-0.8c0.5,0,0.9,0.1,1.2,0.4c0.3,0.3,0.4,0.7,0.4,1.2l-0.1,32.9c0,0.5,0.1,1,0.4,1.3
			c0.3,0.3,0.6,0.4,1.1,0.4c0.9,0,1.7-0.3,2.5-1l1,1.3c-0.8,1-1.8,1.7-2.8,2.3c-1,0.6-1.9,0.9-2.7,0.9
			C749.2,329.7,748.2,329.3,747.6,328.5z"/>
		<path class="st3" d="M762.5,328.5c-0.6-0.8-0.9-2.2-0.9-4v-29c0-0.4-0.1-0.7-0.2-0.8c-0.1-0.2-0.4-0.2-0.8-0.2h-2.1l-0.5-1.3
			c1-0.9,2-1.6,3.3-2.2c1.2-0.6,2.4-0.8,3.3-0.8c0.5,0,0.9,0.1,1.2,0.4c0.3,0.3,0.4,0.7,0.4,1.2l-0.1,32.9c0,0.5,0.1,1,0.4,1.3
			c0.3,0.3,0.6,0.4,1.1,0.4c0.9,0,1.7-0.3,2.5-1l1,1.3c-0.8,1-1.8,1.7-2.8,2.3c-1,0.6-1.9,0.9-2.7,0.9
			C764.1,329.7,763.1,329.3,762.5,328.5z"/>
		<path class="st3" d="M781.5,341.9c-1.3-0.7-2.3-1.6-2.9-2.7s-1-2.2-1-3.5c0-1.7,0.6-3.1,1.7-4.3c1.1-1.2,2.7-1.8,4.7-1.8
			c0.3,0,0.5,0,0.7,0.1c0.1,0.1,0.2,0.2,0.2,0.4c0,0.1-0.2,0.5-0.7,1c-0.5,0.5-0.9,1.1-1.2,1.8c-0.3,0.7-0.5,1.6-0.5,2.6
			c0,1.3,0.4,2.4,1.2,3.3c0.8,0.9,1.8,1.3,3.2,1.3c2,0,3.6-0.9,4.6-2.6s1.5-4,1.5-6.8v-7.3c-0.8,1.5-2,2.6-3.5,3.5
			c-1.5,0.8-3.2,1.3-5.1,1.3c-2.3,0-4.2-0.7-5.5-2.2c-1.3-1.4-1.9-3.5-1.9-6.1v-11c0-0.4-0.1-0.7-0.2-0.9c-0.1-0.2-0.4-0.3-0.8-0.3
			h-2.2l-0.4-1.2c0.8-0.9,1.9-1.6,3.1-2.1c1.2-0.5,2.3-0.8,3.4-0.8c0.5,0,0.9,0.1,1.2,0.4c0.3,0.3,0.5,0.6,0.5,1.1v13.7
			c0,2,0.4,3.5,1.2,4.5c0.8,1,2,1.5,3.5,1.5c2.2,0,4-0.8,5.2-2.5c1.2-1.6,1.9-4,1.9-7c0-2.7-0.1-4.8-0.3-6.1
			c-0.2-1.3-0.8-2.5-1.6-3.6l-0.5-0.8l0.5-0.7l6.1-0.6v26.4c0,4.1-1,7.2-3,9.4c-2,2.2-4.7,3.3-8.1,3.3
			C784.3,342.9,782.8,342.5,781.5,341.9z"/>
	</g>
	<g>
		<path class="st3" d="M410.7,266.5c-9.8,0-16.5-1.9-20.3-5.7c-3.7-3.8-5.7-8.8-5.9-14.8c0-5.2,1-11.3,3.1-18.5
			c2-7.2,4.1-14.1,6.3-20.7c4.3-12.6,8.7-25.1,13.3-37.4c4.6-12.3,9.3-24.1,14-35.5c4.7-11.4,9.2-22.2,13.6-32.6
			c4.4-10.3,8.4-19.8,12.1-28.6c-12.1,0.2-22.5,0.5-31.4,1.1c-8.8,0.5-16.9,1.2-24.1,2c-7.3,0.8-14.9,1.9-22.7,3.3
			c0.9-7.5,4.4-13.2,10.5-17.2s14.4-6.8,24.7-8.4c10.3-1.6,22.1-2.4,35.5-2.4c6.9,0,13.5,0.1,19.6,0.4c6.1,0.3,12,0.7,17.6,1.2
			s11.1,1.1,16.4,1.6c11.2,1.1,20.1,1.8,26.8,2.1c6.7,0.4,11.4,0.5,14.3,0.5c-5.3,5-12.1,8.6-20.1,10.8c-8.1,2.2-16.6,3.6-25.5,4.1
			c-8.9,0.5-17.3,0.8-25.3,0.8c-8.5,21-16.4,42.8-23.5,65.4c-7.1,22.6-13.7,44.9-19.7,67c-2.3,8.5-4.2,15.8-5.7,21.7
			c-1.5,6-2.6,11.4-3.3,16.3c-0.7,4.9-1.1,10.1-1.1,15.6c0,0.9,0,1.9,0.1,3.1C410.1,263,410.3,264.6,410.7,266.5z"/>
		<path class="st3" d="M485.2,251.3c-7.8,0-13.7-2.3-17.6-6.9c-3.9-4.6-5.9-10.2-5.9-16.8c0-4.1,0.7-9.2,2.1-15.5
			c1.4-6.2,3.4-12.8,6-19.6c2.6-6.8,5.6-13.3,8.9-19.3c3.4-6,7-11,10.9-14.8c3.9-3.8,7.8-5.7,11.7-5.7c2.1,0,4,0.6,5.6,1.9
			c1.6,1.2,2.4,3.2,2.4,5.9c0,2.3-1.4,5.8-4.1,10.4c-2.8,4.6-6,10-9.6,16c-3.6,6-6.8,12.3-9.6,18.8c-2.8,6.5-4.1,12.7-4.1,18.5
			c0,5.7,1,9.5,3.1,11.3c2,1.9,5,2.8,8.9,2.8c6,0,12.6-3,19.7-9.1c7.1-6,14.5-16.6,22.1-31.8l4,4.3c-6.2,15.7-14.1,27.8-23.7,36.6
			C506.5,247,496.2,251.3,485.2,251.3z M516.6,131c-3.4,0-6.5-0.8-9.2-2.5c-2.8-1.7-4.1-4.3-4.1-7.9c0-4.3,2.3-7.9,6.9-10.9
			c4.6-3,9.4-4.5,14.4-4.5c3.2,0,5.9,0.7,8.1,2.1c2.2,1.4,3.3,4,3.3,7.7c0,3.7-2,7.3-6.1,10.8C525.9,129.3,521.4,131,516.6,131z"/>
		<path class="st3" d="M554.3,255.6c-8.4,0-15-2.3-19.9-6.9c-4.9-4.6-7.3-11.6-7.3-20.8c0-5.2,0.7-11.3,2.1-18.4
			c1.4-7.1,3.3-14.7,5.7-22.8c2.4-8.1,5-16.1,7.9-23.9c-1.6-0.5-3.1-1-4.4-1.5c-1.3-0.4-3.1-1.1-5.2-2V151c3.2,0.5,5.6,1,7.2,1.5
			c1.6,0.4,3.6,0.8,5.9,1.2c5-12.6,10.3-24.3,16-35c5.7-10.7,11.2-19.2,16.5-25.6s10-9.6,13.9-9.6c2,0,3.7,0.7,5.3,2.1
			c1.6,1.4,2.4,3,2.4,4.8c0,2.1-1.1,5.6-3.2,10.4s-4.8,10.2-8.1,16.1c-3.3,6-6.6,11.9-9.9,17.7c-3.3,5.9-6.2,10.9-8.8,15.2
			c-2.6,4.3-4.1,7-4.7,8.3c4.6,0.7,8.9,1.3,12.8,1.7c3.9,0.4,7.8,0.7,11.7,0.7c5.2,0,10.5-0.4,16-1.1c5.5-0.7,11.6-1.7,18.4-2.9
			c4.8-12.8,10.1-25.4,16-37.8c5.9-12.4,11.9-23.5,18-33.4c6.1-9.9,12-17.8,17.6-23.7c5.6-6,10.5-8.9,14.8-8.9c3.6,0,6.3,2,8.3,6
			c2,4,2.9,8.3,2.9,12.9c0,5.9-1.5,13-4.5,21.3c-3,8.4-7.2,17-12.5,25.9c-5.3,8.9-11.6,17.3-18.8,25.1c-7.2,7.8-15,14.1-23.3,18.9
			c-2.3,5.3-4.4,12-6.3,19.9c-1.9,7.9-3.3,15.6-4.4,23.1c-1.1,7.5-1.6,13.4-1.6,17.9c4.3-11.2,9.1-21.5,14.4-31
			c5.3-9.4,11.3-17,18-22.7c6.7-5.7,13.9-8.5,21.7-8.5c8.2,0,14.1,2.7,17.9,8.1c3.7,5.4,5.6,11.3,5.6,17.7c0,5.2-0.9,10.4-2.8,15.6
			c-1.9,5.2-3.7,10.2-5.6,14.9c-1.9,4.7-2.8,8.9-2.8,12.7c0,3.2,0.8,5.4,2.3,6.7c1.5,1.2,3.2,1.9,4.9,1.9c3.9,0,8.5-2,13.7-6
			c5.2-4,10.4-9.3,15.5-15.9c5.1-6.6,9.3-13.6,12.7-21.1l5.1,4.8c-3.9,8.9-8.6,17.1-14.1,24.5c-5.5,7.5-11.6,13.4-18.3,17.7
			c-6.7,4.4-13.7,6.5-21.2,6.5c-6.8,0-12-1.8-15.6-5.3c-3.6-3.6-5.5-8-5.5-13.3c0-3.7,0.7-7.8,2-12.1c1.3-4.4,2.6-8.8,3.9-13.5
			c1.2-4.6,1.9-8.9,1.9-12.8c0-4.1-0.8-7-2.5-8.8c-1.7-1.8-4-2.7-6.8-2.7c-4.3,0-8.1,1.7-11.6,5.2s-6.6,8-9.5,13.5
			c-2.8,5.5-5.5,11.3-8,17.5c-2.5,6.1-4.9,12-7.3,17.5c-2.4,5.5-4.9,10-7.5,13.5c-2.6,3.5-5.4,5.2-8.4,5.2c-2.7,0-4.8-1.3-6.5-4
			c-1.7-2.7-3.1-5.9-4.1-9.6s-1.8-7.4-2.1-11.1c-0.4-3.6-0.5-6.4-0.5-8.4c-7.1,10.3-15.4,18.7-24.9,25.2
			C575,252.4,564.9,255.6,554.3,255.6z M562,242.3c8.9,0,17.8-3.9,26.8-11.6c9-7.7,16.8-18.4,23.3-31.9c1.1-5.3,2.2-10.4,3.5-15.2
			c1.2-4.8,2.8-10,4.8-15.7c-5.3,1.1-10.5,1.9-15.5,2.4c-5,0.5-9.9,0.8-14.7,0.8s-9.6-0.3-14.4-0.8c-4.8-0.5-9.7-1.2-14.7-2.1
			c-3.9,8.7-7.1,17.5-9.6,26.4c-2.5,8.9-3.7,18-3.7,27.2c0,7.3,1,12.5,3.1,15.7C553,240.7,556.7,242.3,562,242.3z M648.4,146.2
			c5.2-4.4,10-9.4,14.4-14.9c4.4-5.5,8.4-11.2,11.9-16.9c3.5-5.8,6.4-11.3,8.8-16.5c2.4-5.2,4-9.8,4.9-13.7c0.5-2.5,0.8-4.4,0.8-5.9
			c-1.4,0.4-3.7,2.3-6.8,5.9c-3.1,3.6-6.7,8.4-10.8,14.5c-4.1,6.1-8.2,13.3-12.3,21.3C655.3,128,651.6,136.8,648.4,146.2z"/>
		<path class="st3" d="M789.3,250.3c-6.6,0-11.9-1.7-16-5.2c-4.1-3.5-6.1-8.1-6.1-14c0-5,1.2-10.3,3.7-16c2.5-5.7,5-11.3,7.6-16.8
			c2.6-5.5,3.9-10.4,3.9-14.7c0-4.1-1.3-7.5-4-10.3c-2.7-2.8-5.8-5-9.3-6.8c-3.9,9.8-8.3,19.3-13.2,28.4
			c-4.9,9.2-8.9,16.3-11.9,21.5l-4-7.7c2.5-4.6,5.8-11.2,9.9-19.7c4.1-8.5,8-18.1,11.7-28.6c-1.8-1.8-2.7-4.2-2.7-7.2
			c0-4.6,1.4-9,4.3-13.1c2.8-4.1,5.6-6.1,8.3-6.1c2.1,0,3.7,1.2,4.7,3.6c1,2.4,1.5,4,1.5,4.9c0,0.9-0.4,2.5-1.2,4.8
			c-0.8,2.3-1.4,4-1.7,5.1c0.2,2,1.7,3.9,4.7,5.7c2.9,1.9,6.3,4,10,6.5c3.7,2.5,7,5.6,9.9,9.3c2.8,3.7,4.3,8.5,4.3,14.1
			c0,5.2-1.2,10.4-3.5,15.7c-2.3,5.3-4.6,10.3-6.9,14.9c-2.3,4.6-3.5,8.6-3.5,12c0,2.5,0.7,4.1,2,4.9s2.9,1.2,4.7,1.2
			c4.3,0,8.7-1.3,13.3-3.9c4.6-2.6,9.2-5.9,13.6-10c4.4-4.1,8.4-8.4,11.7-12.9c3.4-4.5,6-8.7,7.7-12.4l6.4,4.8
			c-3.4,7.7-8.3,15.2-14.7,22.5c-6.4,7.4-13.5,13.4-21.3,18.1C805.2,247.9,797.3,250.3,789.3,250.3z"/>
		<path class="st3" d="M959,256.4c-10.9,0-19.2-2.9-25.1-8.7s-9.3-12.8-10.1-20.9c-7.7,8.9-16.4,15.8-26.1,20.8
			c-9.8,5-19.7,7.5-29.6,7.5c-11.6,0-20.4-3.1-26.5-9.2c-6.1-6.1-9.2-13.7-9.2-22.8c0-7.8,2-16.1,6-24.8c4-8.7,9.4-16.9,16.1-24.7
			c6.8-7.7,14.2-14.1,22.4-18.9c8.2-4.9,16.5-7.3,25.1-7.3c4.6,0,8.9,1.2,12.9,3.5c4,2.3,6,7,6,14.1c0,6.6-2,12.8-5.9,18.5
			c-3.9,5.8-9.2,10.9-15.7,15.3c-6.6,4.4-13.8,8.1-21.7,10.9c-7.9,2.8-15.9,4.7-23.9,5.6c-0.2,0.7-0.3,1.6-0.4,2.8
			c-0.1,1.2-0.1,2.4-0.1,3.9c0,3.2,0.5,6.5,1.6,9.7c1.1,3.3,3.1,6.1,6,8.4c2.9,2.3,7.3,3.5,13.2,3.5c9.4,0,18.6-3.1,27.6-9.2
			c9-6.1,16.9-13.8,23.6-23.1c1.6-7.3,4.4-14.5,8.5-21.6c4.1-7.1,9.1-13.6,15.1-19.5c6-5.9,12.4-10.6,19.5-14.1
			c7-3.6,14.2-5.3,21.5-5.3c4.8,0,9.2,1.2,13.2,3.5c4,2.3,6,7.1,6,14.4c0,8.7-3.1,16.5-9.2,23.2c-6.1,6.8-14.1,12.2-23.7,16.4
			c-9.7,4.2-20,6.9-30.8,8.1c-0.2,0.9-0.3,1.8-0.4,2.8c-0.1,1-0.1,2.2-0.1,3.6c0,3.2,0.5,6.5,1.5,9.9c1,3.4,2.9,6.3,5.7,8.7
			c2.8,2.4,7.1,3.6,12.8,3.6c7.6,0,15.3-2.2,23.1-6.7c7.7-4.4,14.9-10.3,21.6-17.5c6.7-7.2,12.1-15,16.4-23.3l4.8,3.7
			c-4.8,10.7-11,20.1-18.5,28.4c-7.6,8.3-15.9,14.8-24.9,19.6C978,254,968.6,256.4,959,256.4z M856.6,206.8c5-1.8,10.3-4.1,15.9-7.1
			c5.6-2.9,10.9-6.3,16-10.1c5.1-3.8,9.2-7.9,12.4-12.3c3.2-4.4,4.8-8.8,4.8-13.5c0-1.4-0.3-2.5-0.9-3.3c-0.6-0.8-1.9-1.2-3.9-1.2
			c-3.7,0-7.8,1.4-12.1,4.1c-4.4,2.8-8.6,6.4-12.8,11.1c-4.2,4.6-8,9.7-11.3,15.3C861.2,195.4,858.5,201.1,856.6,206.8z
			 M948.1,206.8c4.6-1.6,9.6-3.6,14.8-6c5.2-2.4,10.2-5.2,14.8-8.4c4.6-3.2,8.4-6.8,11.5-10.8c3-4,4.5-8.4,4.5-13.2
			c0-2.1-0.4-3.6-1.1-4.4c-0.7-0.8-2-1.2-4-1.2c-5,0-10.1,2.1-15.5,6.3c-5.3,4.2-10.2,9.6-14.7,16.3
			C954,192,950.6,199.1,948.1,206.8z"/>
	</g>
	<g>
		<g id="Warstwa_2_2_">
		</g>
		<path class="st3" d="M267.9,138.8L169.6,183c-3.9,1.8-8.5,0-10.3-3.9l0,0c-1.8-3.9,0-8.5,3.9-10.3l98.3-44.2
			c3.9-1.8,8.5,0,10.3,3.9l0,0C273.6,132.4,271.8,137,267.9,138.8z"/>
		<g>
			<path class="st3" d="M155.6,161.8l-123-75.3c-3-1.8-6.9-0.9-8.7,2.1l0,0c-1.8,3-0.9,6.9,2.1,8.7l123,75.3
				C149.8,168.4,152.1,164.5,155.6,161.8z"/>
		</g>
		<path class="st3" d="M108.6,203.1c-1.5-3.7,0.3-8,4-9.5c0.9-0.4,1.8-0.6,2.8-0.6c3,0,5.7,1.9,6.7,4.8c0.7,1.7,1.3,3.1,2,4.6
			c2.1,3.9,4.7,7.4,8,10.5c3.6-5.8,7.2-16.3,2.6-32.5L62,135.9c-0.6,1.1-1.5,2.1-2.7,2.7c-7.6,4.4-14.9,6.6-21.8,6.6
			c-6.3,0-11.1-1.9-14.2-3.7c-0.2,0-0.5-0.1-0.6-0.1c-5.9,0-10.7,5.2-10.7,11.7c0,5.8,3.8,10.6,9,11.5l0,0l0,0c3.5,0.7,6,3.7,6,7.3
			c0,2.7-1.6,6.2-6,7.2l0,0l0,0c-2.3,0.5-6.7,1.8-10.4,5c-4.2,3.6-6.3,8.8-6.3,15.3c0,11,8.3,20,18.5,20c0.7,0,1.4-0.1,2.2-0.2
			c2.3-1.2,7-3.2,12.8-3.2c5.4,0,13,1.7,18.8,10c2.3,3.2,1.7,7.7-1.3,10.1c-1.3,1.1-2.8,1.6-4.4,1.6c-2.3,0-4.4-1.1-5.8-3.1
			c-0.7-1-1.4-1.7-2-2.2c-1.5-1.2-3.2-1.8-5.3-1.8c-1,0-2.1,0.1-3.3,0.4c-0.9,0.2-2.2,0.7-3.6,1.4c-0.2,0.1-0.4,0.2-0.6,0.3
			c-2.1,1.7-7.1,5.9-7.1,12.5c0,6.9,5.2,12.6,11.6,12.6c1.9,0,3.7-0.5,5.4-1.5l0,0l0,0c1-0.6,2.2-0.9,3.4-0.9c2.4,0,4.7,1.2,6,3.3
			l0.4,0.6v0.1v0.1c1.7,2.8,1.5,6.3-0.6,8.9v0.1v0.1c-1.9,2.1-3,5-3,8c0,6.5,4.8,11.7,10.7,11.7c1.4,0,2.7-0.3,4-0.8
			c2.6-6.7,8-15.1,18.7-19.7c0.9-0.4,1.8-0.6,2.8-0.6c3,0,5.6,1.9,6.7,4.8c0.7,1.8,0.7,3.7,0,5.5s-2.1,3.3-3.9,4
			c-2.5,1.1-4.7,2.6-6.8,4.8c-0.8,0.9-1.4,1.7-1.8,2.3v0.1l-0.1,0.1c-1,1.5-1.8,3-2.2,4.4c0,0.4-0.1,0.8-0.2,1.3
			c-1,2.6-2,8-1.5,10.6l0,0l0,0c1.8,9.7,9.4,15.7,19.8,15.7c6.4,0,10.6-2.1,13.3-3.6c2-7.4,9.5-24.3,36.8-29
			c0.4-0.1,0.8-0.1,1.2-0.1c3.6,0,6.6,2.6,7.1,6.2c0.7,4-2,7.8-5.9,8.5c-1.8,0.3-3.7,0.8-5.8,1.3c-13.6,4-17.9,11.8-19.3,16v0.1v0.1
			c-0.5,1.3-0.6,2.2-0.6,2.4v0.1v0.2v0.4l-0.1,0.4c-0.2,1.1-0.3,2.4-0.3,3.8c0,11,8.3,19.9,18.4,19.9c8.5,0,16.1-6.5,18-15.5
			c0.1-4.6,0.2-42,0.2-91.5C145.1,238.3,118.8,230.4,108.6,203.1z M60.9,208.3c-3.5-1.6-5.2-5.8-3.7-9.5c0.8-2.1,1.3-4.1,1.6-6
			c0.9-6.4-0.6-11.5-2-14.6c-0.2-0.5-0.4-0.9-0.6-1.3c-5.6,2.1-11,6.2-15.8,12c-1.1,1.4-1.8,2.4-2,2.7l0,0l-0.1,0.1
			c-1.3,2.2-3.5,3.4-6,3.4c-1.4,0-2.8-0.4-4-1.3c-3.3-2.2-4.2-6.7-2.1-10.1l0.2-0.4l0.1-0.1c3.1-4.4,14-18.4,30.9-22.2
			c0.5-0.2,1-0.2,1.3-0.2c2.4-0.5,4.8-0.7,7.3-0.7c6.9,0,13.9,1.9,20.9,5.5c3.4,1.7,4.9,6.1,3.3,9.7v0.1l0,0
			c-1.2,2.6-3.7,4.2-6.4,4.2c-1.2,0-2.3-0.3-3.3-0.9c-1.1-0.5-2.1-1-3.1-1.5c-2-0.8-3.9-1.5-5.9-1.9c0,0.1,0.1,0.2,0.1,0.2l0,0l0,0
			c3,9.6,2.7,19.2-0.9,28.5c-1.1,2.8-3.7,4.7-6.6,4.7C62.8,209,61.8,208.8,60.9,208.3z M74.6,224.8L74.6,224.8h-0.2
			c-3.9,0-7.1-3-7.3-7.1c-0.2-4.1,2.8-7.5,6.9-7.7h0.1l0,0c0.2,0,1.4-0.1,3-0.5c5-1.5,8.1-4.7,9.2-9.7v-0.1v-0.1
			c0.2-0.9,0.3-2.1,0.4-3.3c0.2-4,3.3-7,7.1-7c0.1,0,0.3,0,0.4,0c3.9,0.2,7,3.7,6.8,7.7C100.2,218.2,83.3,224.4,74.6,224.8z
			 M129.6,246.5l0.6,0.6l0.1,0.1l0.1,0.1c6.3,7,10,15.9,11.2,26.5c0.4,4.2-2.3,7.8-6.3,8.2h-0.2h-0.2h-0.6c-3.5,0-6.5-2.7-7.1-6.3
			v-0.1v-0.1c-0.2-1.3-0.4-2.6-0.6-3.7c-0.4-1.7-0.8-3.4-1.4-4.9c-5.3,7-12.6,11.7-21.4,13.6l-0.4,0.1h-0.1c-0.3,0.1-0.6,0.1-1,0.1
			c-3.4,0-6.4-2.5-7-6l0,0l0,0c-0.7-3.9,1.8-7.7,5.5-8.6l0,0h0.1c2-0.4,3.8-1.1,5.5-1.9l0,0l0,0c4.5-2.3,7.3-5.8,8.8-8.5
			c0.3-0.6,0.6-1.1,0.9-1.7c-5.5-4.5-11.9-6.3-16.6-7.1c-2.1-0.3-3.4-0.4-3.6-0.4l0,0c-4,0-7.2-3.3-7.2-7.4c0-4.1,3.2-7.4,7.2-7.4
			l0,0C96.3,231.8,115.9,232,129.6,246.5z"/>
		<path class="st3" d="M27.6,126.5c0.5,0.3,1.2,0.7,1.8,1.4c0.2,0.2,1,0.8,2.1,1.2h0.1l0,0c1.8,0.8,3.7,1.2,5.9,1.2
			c2.7,0,5.6-0.6,8.7-1.8c0.8-0.3,1.6-0.7,2.4-1l-26.1-16c-0.1,0.6-0.1,1.3-0.1,1.9C22.3,121.2,25.2,124.6,27.6,126.5z"/>
		<path class="st3" d="M144,220.7c-0.1,0.1-0.1,0.2-0.2,0.3c4.2,2.1,8.3,3.5,11.5,4.4v-32.5l-4.3-2.7C152,204.3,148,214.4,144,220.7
			z"/>
		<path class="st3" d="M136.6,4c-10.4,0-18.9,9.2-18.9,20.4c0,2.2,0.3,4.3,1,6.4c0.1,0.4,0.2,0.8,0.2,1.2c0.3,0.7,0.8,1.6,1.3,2.4
			l0,0l0,0c1.5,2.5,4.3,5.6,8.5,6.1h0.1h0.1c0.4,0.1,0.8,0.1,1.2,0.1c0.5,0,1.1-0.1,1.6-0.2l0,0l0,0c0.4-0.1,0.8-0.1,1.2-0.1
			c3.5,0,6.5,2.7,7.1,6.3v0.1v0.1c0.4,4-2.3,7.6-6.1,8.2c-1.3,0.2-2.6,0.3-3.9,0.3c-13.7,0-21.8-11.2-24.7-18.6
			c-1.1-0.9-3.6-2.4-7.5-2.4c-0.6,0-1.3,0-1.8,0.1l0,0l0,0c-7.9,0.9-13.2,6.4-13.2,13.6c0,0.7,0,1.3,0.1,1.8
			c3.5,4,11.3,14.7,10,30.6c-0.2,3.9-3.3,6.8-7.2,6.8h-0.3h-0.2H85c-3.8-0.4-6.6-3.9-6.4-7.9v-0.1v-0.1c0.7-8.8-2.7-14.9-5.2-18.1
			c-0.7-0.3-1.3-0.8-1.9-1.4l-0.3-0.3c-0.7-0.6-3.8-2.8-9.5-2.8c-0.9,0-2,0.1-3.1,0.2c-9.4,1.3-16.5,9.4-16.5,19l79.7,48.8
			c15.7,0.6,24.2,10.6,28.2,17.2l5.6,3.4v-29.6c-1.1,1.1-2.5,1.8-4.2,2h-0.2H151h-0.4c-3.6,0-6.7-2.8-7.2-6.5
			c-0.2-1.2-0.4-2.4-0.6-3.6c-0.1-0.6-0.3-1.1-0.4-1.7c-3.5,4.1-9.1,8.6-17.6,10.3l-0.4,0.1l0,0c-0.3,0.1-0.6,0.1-1,0.1
			c-3.4,0-6.4-2.5-7-6l0,0l0,0c-0.7-3.9,1.8-7.7,5.5-8.6l0,0l0,0c2.2-0.5,4.2-1.3,5.9-2.3l0,0l0,0c1.8-1.1,3.4-2.6,4.7-4.5l0.2-0.3
			l0,0c0-0.1,0.1-0.1,0.1-0.2c0.3-0.5,0.6-1,0.9-1.4c-4.2-3.1-8.9-4.6-12.4-5.2c-1.7-0.3-3-0.3-3.5-0.3c-1.9,0-3.8-0.8-5.1-2.2
			c-1.3-1.4-2.1-3.3-2-5.3c0-1.9,0.8-3.7,2.1-5c1.4-1.4,3.2-2.2,5.1-2.2c0.2,0,17.4,0.1,29.3,12.9l0.5,0.5l0.1,0.1l0.1,0.1
			c3.4,3.8,5.9,8.2,7.6,13.3V25.2v-0.8C155.5,13.2,147,4,136.6,4z"/>
		<path class="st3" d="M298.6,100.4c-1.7,0-3.3,0.4-4.9,1.1c-0.9,0.5-1.9,0.7-3,0.7c-2.4,0-4.6-1.2-6-3.3l-0.2-0.3l-0.1-0.2
			l-0.1-0.2c-1.8-3.1-1.2-6.8,1.3-9.2c3.5-3.4,5.4-8,5.4-13c0-9.6-7.1-17.8-16.6-19h-0.1h-0.1c-0.9-0.1-1.7-0.1-2.8-0.1
			c-6.1,0-9.2,2.6-9.7,3.1c-0.5,0.6-1.2,1.1-2,1.5c-2.5,3.3-5.9,9.4-5.2,18.1c0.4,4.1-2.4,7.6-6.4,8.1h-0.2h-0.2h-0.3
			c-3.7,0-6.8-2.9-7.2-6.7v-0.1v-0.1c-1.3-16.2,6.7-27,9.9-30.6c0.1-0.7,0.2-1.3,0.2-1.9c0-7.3-5.3-12.7-13.2-13.6
			c-0.6-0.1-1.1-0.1-1.8-0.1c-3.9,0-6.4,1.5-7.5,2.4c-3.6,8.8-12,18.6-24.7,18.6c-1.3,0-2.7-0.1-4-0.4c-3.8-0.7-6.4-4.3-6-8.2
			c0.4-3.7,3.4-6.5,7.1-6.5c0.4,0,0.7,0,1.1,0.1c0.6,0.1,1.3,0.1,1.9,0.1c0.4,0,0.8,0,1.3,0c4.1-0.5,6.8-3.7,8.4-6.2
			c0.6-0.9,1-1.8,1.4-2.5v-0.4l0.2-0.6c0.7-2.1,1-4.3,1-6.4c-0.2-11.3-8.7-20.5-19-20.5c-10.4,0-18.9,9.2-18.9,20.4v0.8v73.6
			c1.7-4.7,4.1-8.9,7.2-12.5c0.3-0.4,0.7-0.8,1.1-1.1c11.3-11.9,27.1-12.6,28.9-12.6c0.1,0,0.2,0,0.3,0c3.9,0,7,3.3,7,7.4
			s-3.2,7.4-7.1,7.4c-0.9,0-2.2,0.1-3.5,0.3c-2.8,0.5-7.9,1.7-12.4,5.2c0.3,0.5,0.6,1,0.9,1.5c0.1,0.1,0.1,0.2,0.2,0.3l0.1,0.2
			c1.4,1.8,3,3.4,4.9,4.6c1.7,1.1,3.6,1.9,5.8,2.3h0.1h0.1c3.8,0.9,6.2,4.6,5.5,8.5v0.1v0.1c-0.6,3.5-3.6,6-7,6c-0.3,0-1,0-1.7-0.3
			c-8.3-1.9-13.8-6.2-17.2-10.2c-0.2,0.6-0.3,1.1-0.4,1.7c-0.3,1.2-0.5,2.4-0.6,3.6c-0.5,3.7-3.5,6.5-7.2,6.5h-0.4h-0.4l-0.4-0.1
			c-1.4-0.3-2.6-1-3.5-1.9V147l3.7-1.7c1.1-2.3,3.2-6.3,6.9-10.2c6.5-6.8,14.9-10.5,24.5-10.5c0.6,0,1.2,0,1.8,0
			c2.3,0.1,4.3,1.3,5.5,3.1l4.9-2.2c7.7-11.3,20.1-15.4,25.4-16.7l0.1-0.1l0.6-0.1c0.4-0.1,0.8-0.1,1.2-0.1c2.1,0,4,0.9,5.3,2.4
			c2.4-0.8,4.8-1.3,7.1-1.3c8.6,0,16.4,5,19.8,12.8c0.8,1.8,1.4,3.7,1.7,5.7c0.2,0.1,0.5,0.2,0.7,0.3c3.1,1.2,6,1.8,8.7,1.8
			c2.1,0,4.1-0.4,5.8-1.1c1.2-0.6,2-1.1,2.3-1.5c0.1-0.1,0.1-0.1,0.2-0.2c0.4-0.4,0.9-0.8,1.4-1.1c2.2-1.6,5.2-5.1,5.2-12.8
			C310.7,106.3,305.3,100.4,298.6,100.4z"/>
		<g>
			<path class="st3" d="M310.2,219.4c10.2,0,18.5-9,18.5-20c0-14.5-10.4-18.9-16.7-20.3l0,0l0,0c-4.1-1-6-4.3-6-7.2
				c0-3.7,2.6-6.8,6.1-7.3c5.2-1,8.9-5.8,8.9-11.5c0-6.5-4.8-11.7-10.7-11.7c-0.1,0-0.4,0-0.6,0.1c-3.1,1.8-7.8,3.7-14.2,3.7
				c-3.8,0-7.9-0.7-12.1-2.1c-2.3,3.8-5.6,6.8-9.7,8.6l-76.6,34.4c-2.3,12.5,0.5,21.1,4,26.7c3.3-3.1,5.9-6.6,8-10.5
				c0.8-1.5,1.5-2.9,2-4.4v-0.1l0.1-0.1c1.2-2.8,3.8-4.6,6.7-4.6c0.9,0,1.9,0.2,2.7,0.6c3.5,1.5,5.3,5.7,4,9.4l0,0l0,0
				c-10.1,26.6-35.3,35.1-46.8,37.6c0,49.5,0.1,87,0.2,91.6c1.9,9,9.4,15.4,18,15.4c10.1,0,18.4-8.9,18.4-19.9
				c0-1.4-0.1-2.7-0.3-3.9l-0.1-0.4v-0.4v-0.2v-0.1c0-0.2-0.1-1.1-0.6-2.4l0,0l0,0c-1.4-4.3-5.9-12.1-19.3-16.1l0,0l0,0
				c-1.7-0.5-3.5-0.9-5.7-1.3c-3.9-0.7-6.5-4.5-5.9-8.5c0.6-3.6,3.6-6.2,7.1-6.2c0.4,0,0.8,0,1.2,0.1c26.7,4.8,34.5,20.7,36.8,29
				c2.7,1.5,7,3.6,13.3,3.6c10.3,0,17.9-6,19.8-15.7c0.5-2.6-0.4-8-1.2-10.8c-0.1-0.5-0.2-0.9-0.2-1.2c-0.6-1.7-1.4-3.1-2.2-4.4
				c-0.6-0.9-1.2-1.8-2-2.6c-1.9-2-4.2-3.7-6.8-4.8c-3.6-1.6-5.3-5.7-4-9.4V272v-0.1c1.2-2.8,3.8-4.6,6.7-4.6c0.9,0,1.9,0.2,2.7,0.6
				c10.7,4.6,16.1,13,18.7,19.7c1.3,0.6,2.6,0.8,4,0.8c5.9,0,10.7-5.2,10.7-11.7c0-3-1.1-5.9-3-8c-2.2-2.4-2.5-6.1-0.7-9v-0.1v-0.1
				l0.4-0.5c1.3-2.1,3.6-3.4,6-3.4c1.3,0,2.5,0.4,3.6,1c1.6,0.9,3.5,1.4,5.3,1.4c6.4,0,11.6-5.7,11.6-12.6c0-6.6-5.1-10.9-7.1-12.5
				l-0.2-0.1c0,0-0.1-0.1-0.2-0.1c-1.5-0.8-2.9-1.3-3.8-1.5c-1.1-0.3-2.2-0.4-3.2-0.4c-2,0-3.8,0.6-5.3,1.8c-0.8,0.6-1.4,1.3-2,2.1
				c-1.3,1.9-3.5,3.1-5.8,3.1c-1.6,0-3.1-0.5-4.4-1.6c-1.5-1.2-2.4-2.9-2.7-4.8c-0.2-1.9,0.2-3.8,1.3-5.3
				c5.6-8.4,13.2-10.2,18.6-10.2c5.7,0,10.4,2,12.7,3.1C308.8,219.3,309.5,219.4,310.2,219.4z M237.1,246.6H237h-0.1
				c-0.9,0-2.2,0.1-3.4,0.3h-0.1h-0.1c-3.8,0.5-10.6,2.1-16.6,7c0.3,0.5,0.6,1,0.9,1.7c1.5,2.5,4.2,6,8.9,8.5
				c1.7,0.9,3.5,1.5,5.5,1.9h0.1l0,0c3.8,0.9,6.2,4.6,5.5,8.5v0.1v0.1c-0.6,3.5-3.6,6-7,6c-0.3,0-1,0-1.7-0.2
				c-8.5-1.8-15.8-6.5-21-13.5c-0.6,1.6-1,3.3-1.4,5c-0.3,1.1-0.4,2.3-0.5,3.3v0.1v0.1c-0.4,3.7-3.5,6.5-7.2,6.5h-0.5h-0.2h-0.2
				c-3.9-0.5-6.7-4.1-6.3-8.2l0,0l0,0c1.3-10.7,5-19.6,11.2-26.5l0.1-0.1l0,0c0.2-0.2,0.4-0.5,0.8-0.8c13.5-14.2,33-14.6,33.2-14.6
				c3.9,0,7.1,3.3,7.2,7.3C244.2,243,241.2,246.4,237.1,246.6z M265.9,217.6v0.1c-0.2,4-3.4,7.1-7.2,7.1h-0.1h-0.1
				c-10.3-0.3-25.8-7.9-26.6-27.7c-0.1-2,0.6-4,2-5.5c1.3-1.4,3-2.1,4.9-2.2c0.1,0,0.2,0,0.3,0c3.8,0,6.9,3.1,7.1,7
				c0.1,1.3,0.2,2.4,0.4,3.3v0.1v0.1c1.3,6.2,5.7,8.7,9.2,9.7c1.6,0.4,2.8,0.5,3,0.5l0,0h0.1c3.8,0.2,6.9,3.5,6.9,7.5l0,0
				L265.9,217.6L265.9,217.6z M305.2,194.1c-1.2,0.9-2.7,1.4-4.2,1.4c-2.4,0-4.5-1.2-5.9-3.2c-0.1-0.2-0.3-0.4-0.5-0.6
				c-0.4-0.5-1-1.5-1.9-2.5l0,0l0,0c-2.7-3.5-8.2-9.3-15.8-12.2c-0.2,0.4-0.4,0.8-0.5,1.2v0.1v0.1c-1.2,2.6-3,7.9-2,14.6
				c0.3,1.9,0.8,3.9,1.6,6c1.5,3.7-0.2,7.9-3.7,9.5c-0.9,0.4-1.9,0.7-2.9,0.7c-2.9,0-5.5-1.8-6.6-4.7c-4.5-11.9-3-21.9-0.9-28.3
				c0-0.1,0.1-0.2,0.1-0.3c-1.9,0.4-3.9,1-5.9,1.9c-0.3,0.1-0.5,0.2-0.8,0.3c-0.8,0.4-1.6,0.7-2.3,1.1h-0.1h-0.1
				c-1,0.5-2.1,0.8-3.2,0.8c-2.8,0-5.2-1.5-6.5-4l0,0l0,0c-1.7-3.6-0.2-8,3.3-9.8c7-3.7,14-5.5,20.9-5.5c2.5,0,4.9,0.2,7.4,0.7
				c0.2,0,0.3,0,0.4,0.1l0,0l0.4,0.1c17.9,3.8,29.2,18.8,31.5,22.7l0,0C309.2,187.4,308.3,191.9,305.2,194.1z"/>
		</g>
		<path class="st3" d="M211.8,135.5c-1.1,0-2.3,0.1-3.4,0.3c-6.7,1.1-11.2,4.7-14,8l18.5-8.3C212.5,135.5,212.1,135.5,211.8,135.5
			L211.8,135.5z"/>
		<path class="st3" d="M189,220.7c-3.6-5.8-7.5-15-7.1-27.9l-4.3,1.9v30.6c3.2-0.9,7.3-2.3,11.6-4.4
			C189.1,220.9,189,220.8,189,220.7z"/>
	</g>
</g>
</svg>
