<?xml version="1.0" encoding="utf-8"?>
<!-- Generator: Adobe Illustrator 21.0.0, SVG Export Plug-In . SVG Version: 6.00 Build 0)  -->
<svg version="1.1" xmlns="http://www.w3.org/2000/svg" xmlns:xlink="http://www.w3.org/1999/xlink" x="0px" y="0px"
	 viewBox="0 0 1090.5 426" style="enable-background:new 0 0 1090.5 426;" xml:space="preserve">
<style type="text/css">
	.st0{display:none;}
	.st1{display:inline;fill:none;stroke:#ED1818;stroke-miterlimit:10;}
	.st2{display:inline;}
	.st3{fill:#9679E6;}
</style>
<g id="Warstwa_2">
</g>
<g id="Warstwa_1">
	<g class="st0">
		<line class="st1" x1="904.9" y1="-552.3" x2="-595.1" y2="947.7"/>
		<polygon class="st2" points="-115.6,-458.4 1072.4,-458.4 926.3,-264.3 -257.6,-264.3 		"/>
		<polygon class="st2" points="-369.1,-116.4 818.9,-116.4 672.8,89.7 -511.1,89.7 		"/>
		<polygon class="st2" points="-141.1,617.7 570.9,617.7 288.9,813.7 -287.1,813.7 		"/>
		<path class="st2" d="M672.8,29.7"/>
		<path class="st2" d="M615.9-116.4l-295,422.1c458.2,8.5,476.6,510.5,17,508h-220l228-104l0-92c126.6-1.5,124.7-167.5-1.9-166
			L5.9,445.5l398-561.9H615.9z"/>
		<polygon class="st2" points="469.4,-458.4 -476.8,804.3 -694.7,813.6 227.4,-458.4 		"/>
	</g>
	<g class="st0">
		<polygon class="st2" points="58.2,-327.5 155.7,-541.8 -116.8,-541.8 -214.3,-327.5 		"/>
		<polygon class="st2" points="330.7,-327.5 428.2,-541.8 155.7,-541.8 58.2,-327.5 		"/>
		<polygon class="st2" points="603.2,-327.5 700.7,-541.8 428.2,-541.8 330.7,-327.5 		"/>
		<polygon class="st2" points="-116.8,-541.8 -429.1,-541.8 -526.6,-327.5 -214.3,-327.5 		"/>
		<polygon class="st2" points="875.7,-327.5 973.2,-541.8 700.7,-541.8 603.2,-327.5 		"/>
		<polygon class="st2" points="-39.3,-113.2 -429.3,-113.2 -526.8,101.1 -136.8,101.1 		"/>
		<polygon class="st2" points="135.7,101.1 233.2,-113.2 -39.3,-113.2 -136.8,101.1 		"/>
		<polygon class="st2" points="-429.3,315.3 -526.8,529.6 -59.3,529.6 38.2,315.3 		"/>
		<polygon class="st2" points="213.2,529.6 485.7,529.6 583.2,315.3 310.7,315.3 		"/>
		<polygon class="st2" points="-526.8,958.2 -254.3,958.2 -156.8,743.9 -429.3,743.9 		"/>
		<polygon class="st2" points="115.7,743.9 18.2,958.2 290.7,958.2 388.2,743.9 		"/>
		<polygon class="st2" points="408.2,101.1 680.7,101.1 778.2,-113.2 505.7,-113.2 		"/>
		<polygon class="st2" points="310.7,315.3 583.2,315.3 680.7,101.1 408.2,101.1 		"/>
		<path class="st2" d="M583.2,315.3l-97.5,214.3c259.8-0.2,260,214.1,0.2,214.3c-28.5,0-60.8,0-97.7,0l0,0l0,0l-97.5,214.3
			c114.7,0,214.2,0,292.5,0C1040.6,958.2,1040.6,315.3,583.2,315.3z M622,529.6C622,529.6,622,529.6,622,529.6h136.2H622z"/>
		<polygon class="st2" points="388.2,743.9 290.7,958.2 388.2,743.9 		"/>
		<polygon class="st2" points="622,529.6 758.2,529.6 622,529.6 		"/>
	</g>
	<g>
		<path class="st3" d="M158.5,123.7c22.1,92.5,116,240.4,211.3,276.6C246.7,417.2,121.7,242.5,83.2,130.3
			C128.7,114,158.5,123.7,158.5,123.7z"/>
		<g>
			<path class="st3" d="M185.2,181.5C295.5,152.9,403.2,96.9,416.4,15c-48.1,55-154.7,92.6-251.8,108
				C168.8,140.5,175.9,160.5,185.2,181.5z"/>
			<path class="st3" d="M77.4,132l-0.4-1.3c-10.6,0.1-20.8-0.2-30.2-0.9c0,0-19.9,25.4-16.2,73.8c23-0.3,48.7-2.4,75.7-6.3
				C94.3,174.9,84.5,152.7,77.4,132z"/>
		</g>
		<path class="st3" d="M271.1,299.4c26.6-35.6,51-110.8,34.6-151.9c44.3,33.4,16,132.3-12.7,179.1
			C286.1,320.5,271.1,299.4,271.1,299.4z"/>
	</g>
	<g>
		<path class="st3" d="M425.9,365.4l0.6-0.9c0.8-1.1,1.4-2.2,1.8-3.4c0.3-1.2,0.5-2.8,0.5-4.9v-19.1c0-1.6-0.1-2.6-0.3-3.1
			c-0.2-0.5-0.7-0.7-1.4-0.7h-2.2c-1.2,0-2.1,0.1-2.8,0.4c-0.6,0.3-1.2,0.7-1.5,1.3c-0.4,0.6-0.7,1.5-1.1,2.7l-0.3,1.2l-1.7-0.6
			v-8.8l0.8-0.7l0.9,0.7c0.9,0.7,2.7,1,5.6,1h13c2.9,0,4.8-0.3,5.6-1l0.9-0.7l0.8,0.7v8.8l-1.7,0.6l-0.3-1.2c-0.5-1.8-1.1-3-1.8-3.6
			s-1.9-0.9-3.6-0.9h-2.3c-0.7,0-1.2,0.3-1.4,0.8c-0.2,0.5-0.4,1.5-0.4,3.1v22.5c0,1.5,0.2,2.6,0.6,3.2c0.4,0.6,1.3,1.1,2.6,1.5
			l1.2,0.3l-0.6,1.7h-10.9L425.9,365.4z"/>
		<path class="st3" d="M449.4,364.7c-1.3-1.4-2-3.5-2-6.1v-12.4c0-0.8-0.3-1.2-1-1.2h-2.2l-0.4-1.2c0.8-0.9,1.9-1.6,3.1-2.1
			c1.2-0.5,2.3-0.8,3.4-0.8c0.5,0,0.9,0.1,1.2,0.4c0.3,0.3,0.5,0.6,0.5,1.1v15.1c0,2,0.4,3.5,1.2,4.5c0.8,1,2,1.6,3.6,1.6
			c2.2,0,4-1,5.2-2.9s1.9-4.6,1.9-8c0-2.4-0.1-4.3-0.4-5.7c-0.3-1.4-0.8-2.7-1.6-4l-0.6-0.8l0.6-0.7l6.1-0.6v20.9
			c0,1,0.4,1.5,1.3,1.5c0.8,0,1.7-0.3,2.5-0.9l1,1.3c-0.8,1-1.7,1.7-2.7,2.3c-1,0.6-1.9,0.9-2.8,0.9c-1.3,0-2.3-0.4-2.9-1.2
			c-0.6-0.8-0.9-2-0.9-3.6c-0.8,1.5-2,2.7-3.5,3.5c-1.5,0.9-3.2,1.3-5,1.3C452.5,366.9,450.7,366.2,449.4,364.7z"/>
		<path class="st3" d="M479.6,365.6c-0.8-0.9-1.2-2-1.2-3.5v-17.5h-4.3c0-0.9,0.1-1.5,0.2-1.7c0.1-0.3,0.5-0.5,1-0.6
			c1.8-0.4,3-1.2,3.7-2.2c0.7-1,1.3-2.4,1.6-4.1c0.1-0.5,0.2-0.8,0.5-1c0.3-0.1,0.9-0.2,1.8-0.2v6.7h6.4c0,0.7-0.1,1.3-0.3,1.9
			c-0.2,0.5-0.5,1-0.8,1.2h-5.3v16.1c0,1,0.1,1.7,0.4,2.2c0.3,0.4,0.8,0.6,1.5,0.6c1,0,2.1-0.5,3.3-1.6l0.9,1.3
			c-0.8,1.1-1.9,2-3.1,2.7c-1.2,0.7-2.3,1-3.3,1C481.5,366.9,480.4,366.5,479.6,365.6z"/>
		<path class="st3" d="M496,363.4c-2.2-2.4-3.3-5.5-3.3-9.5c0-4,1.1-7.1,3.3-9.5c2.2-2.3,5.2-3.5,8.9-3.5c2.4,0,4.6,0.5,6.4,1.6
			c1.8,1.1,3.2,2.6,4.2,4.5c1,1.9,1.5,4.2,1.5,6.9s-0.5,4.9-1.5,6.9c-1,2-2.4,3.5-4.3,4.6c-1.8,1.1-3.9,1.6-6.4,1.6
			C501.1,366.9,498.2,365.7,496,363.4z M509.8,361.4c1.3-1.9,1.9-4.4,1.9-7.4c0-1.6-0.2-3.2-0.7-4.7c-0.4-1.6-1.2-2.9-2.2-4.1
			c-1-1.1-2.3-1.7-3.9-1.7c-2.2,0-3.9,1-5.2,2.9c-1.3,1.9-1.9,4.4-1.9,7.6c0,3.1,0.6,5.6,1.8,7.5c1.2,1.9,2.9,2.8,5,2.8
			C506.8,364.2,508.5,363.3,509.8,361.4z"/>
		<path class="st3" d="M521.7,364.7l0.9-0.3c0.9-0.1,1.5-0.5,1.7-1s0.4-1.4,0.4-2.7v-13.9c0-0.4-0.1-0.7-0.2-0.8
			c-0.1-0.2-0.4-0.2-0.8-0.2h-2.1l-0.5-1.3c1-0.9,2-1.6,3.3-2.1s2.3-0.8,3.3-0.8c0.5,0,0.9,0.1,1.2,0.4c0.3,0.3,0.4,0.7,0.4,1.1v5.4
			h0.3c0.6-2.2,1.5-4,2.7-5.4c1.2-1.4,2.5-2,3.9-2s2.5,0.4,3.4,1.3c0.9,0.9,1.3,2.1,1.3,3.7c0,1.2-0.5,2.3-1.4,3.1
			c-0.9,0.8-2.1,1.3-3.5,1.3c-0.7,0-1-0.2-1-0.5c0-0.1,0.1-0.4,0.4-0.8c0.3-0.4,0.5-0.8,0.7-1.2s0.3-0.9,0.3-1.4
			c0-0.6-0.1-1.1-0.4-1.5c-0.3-0.3-0.7-0.5-1.2-0.5c-0.8,0-1.6,0.5-2.4,1.4c-0.8,1-1.6,2.5-2.2,4.6s-0.9,4.7-0.9,8
			c0,1.5,0.1,2.7,0.4,3.6c0.2,0.9,0.6,1.8,1.2,2.6l0.6,0.8l-0.6,0.8h-8.7L521.7,364.7z"/>
		<path class="st3" d="M542.9,339.4l2.3-4.5c0.4-0.8,0.5-1.4,0.5-2c0-0.4-0.1-0.7-0.2-1c-0.2-0.3-0.4-0.6-0.8-0.8l-0.9-0.7l-0.2-1.2
			l0.9-0.4c0.9-0.3,1.8-0.5,2.7-0.5c2.2,0,3.3,1.1,3.3,3.2c0,0.9-0.3,1.9-1,2.9s-1.7,2.3-3.1,3.8l-2,2.1L542.9,339.4z"/>
		<path class="st3" d="M558.4,365.2c-1.6-1.2-2.5-2.7-2.5-4.5c0-1.1,0.4-2,1.2-2.8c0.8-0.7,1.8-1.1,3-1.1c0.3,0,0.5,0.1,0.7,0.2
			s0.3,0.3,0.3,0.4c0,0.1-0.1,0.4-0.3,1c-0.2,0.5-0.3,1.2-0.3,1.9c0,1.4,0.5,2.4,1.5,3.1s2.1,1.1,3.3,1.1c1.4,0,2.5-0.4,3.4-1.1
			c0.9-0.7,1.3-1.7,1.3-2.9c0-1.1-0.5-1.9-1.4-2.6c-0.9-0.7-2.3-1.4-4-2.1c-1.6-0.7-3-1.4-4-2c-1.1-0.6-2-1.4-2.8-2.5
			s-1.2-2.3-1.2-3.7c0-1.9,0.9-3.5,2.6-4.8c1.7-1.2,3.9-1.9,6.5-1.9c2.4,0,4.3,0.4,5.9,1.3c1.5,0.9,2.3,2.1,2.3,3.7
			c0,1.3-0.4,2.3-1.2,3.1c-0.8,0.8-1.8,1.2-3,1.2c-0.7,0-1.1-0.2-1.1-0.7c0-0.1,0.1-0.5,0.4-1c0.3-0.5,0.4-1.1,0.4-1.8
			c0-1.2-0.4-2.1-1.3-2.7c-0.8-0.6-1.8-0.9-2.9-0.9c-1.4,0-2.4,0.3-3.2,1s-1.2,1.5-1.2,2.6c0,1.2,0.5,2.3,1.5,3
			c1,0.8,2.5,1.5,4.3,2.2c1.6,0.7,2.9,1.3,4,1.9c1.1,0.6,2,1.3,2.7,2.2c0.7,0.9,1.1,1.9,1.1,3.2c0,2.3-0.9,4.1-2.7,5.5
			s-4.2,2.1-7.2,2.1C562.1,366.9,560,366.3,558.4,365.2z"/>
		<path class="st3" d="M603.6,365.4l0.6-0.9c0.8-1.1,1.4-2.2,1.8-3.4c0.3-1.2,0.5-2.8,0.5-4.9v-19.1c0-1.6-0.1-2.6-0.3-3.1
			c-0.2-0.5-0.7-0.7-1.4-0.7h-2.2c-1.2,0-2.1,0.1-2.8,0.4c-0.6,0.3-1.2,0.7-1.5,1.3c-0.4,0.6-0.7,1.5-1.1,2.7l-0.3,1.2l-1.7-0.6
			v-8.8l0.8-0.7l0.9,0.7c0.9,0.7,2.7,1,5.6,1h13c2.9,0,4.8-0.3,5.6-1l0.9-0.7l0.8,0.7v8.8l-1.7,0.6l-0.3-1.2c-0.5-1.8-1.1-3-1.8-3.6
			s-1.9-0.9-3.6-0.9H613c-0.7,0-1.2,0.3-1.4,0.8c-0.2,0.5-0.4,1.5-0.4,3.1v22.5c0,1.5,0.2,2.6,0.6,3.2c0.4,0.6,1.3,1.1,2.6,1.5
			l1.2,0.3l-0.6,1.7h-10.9L603.6,365.4z"/>
		<path class="st3" d="M627,365.7c-0.6-0.8-0.9-2.2-0.9-4v-15.4c0-0.4-0.1-0.7-0.2-0.9c-0.1-0.2-0.4-0.3-0.8-0.3h-2.2l-0.4-1.2
			c1-0.9,2-1.6,3.3-2.1c1.2-0.5,2.3-0.8,3.2-0.8c0.5,0,0.9,0.1,1.2,0.4c0.3,0.3,0.5,0.6,0.5,1.1v19.4c0,1.1,0.5,1.7,1.5,1.7
			c0.8,0,1.6-0.3,2.5-1l0.9,1.3c-0.9,1-1.9,1.7-2.9,2.3c-1,0.6-1.9,0.9-2.7,0.9C628.6,366.9,627.6,366.5,627,365.7z M626.3,335.6
			c-0.7-0.8-1.1-1.5-1.1-2.1c0-0.6,0.4-1.3,1.1-2.1c0.7-0.8,1.4-1.2,1.9-1.2c0.6,0,1.3,0.4,2,1.2c0.7,0.8,1.1,1.5,1.1,2.1
			c0,0.6-0.4,1.3-1.1,2.1c-0.7,0.8-1.4,1.2-2,1.2C627.7,336.7,627.1,336.4,626.3,335.6z"/>
		<path class="st3" d="M673.4,365.7c-0.6-0.8-0.9-2.2-0.9-4v-11.8c0-3.4-1.2-5.1-3.7-5.1c-1.4,0-2.6,0.5-3.6,1.6
			c-1.1,1.1-1.9,2.6-2.6,4.6c-0.6,2-1,4.2-1,6.8v0.6c0,1.7,0.1,3,0.4,4.1c0.3,1,0.9,2.1,1.7,3.1l-0.6,0.8h-6v-16.4
			c0-1.7-0.3-3-1-3.8c-0.6-0.9-1.6-1.3-2.8-1.3c-1.4,0-2.7,0.6-3.8,1.7c-1.1,1.1-1.9,2.7-2.5,4.8c-0.6,2-0.9,4.4-0.9,7.1
			c0,1.5,0.1,2.8,0.4,3.7c0.2,1,0.6,1.8,1.2,2.7l0.6,0.8l-0.6,0.8h-8.7l-0.5-1.5l0.9-0.3c0.9-0.1,1.5-0.5,1.7-1s0.4-1.4,0.4-2.7
			v-13.9c0-0.4-0.1-0.7-0.2-0.8c-0.1-0.2-0.4-0.2-0.8-0.2h-2.1l-0.5-1.3c1-0.9,2-1.6,3.3-2.1s2.3-0.8,3.3-0.8c0.5,0,0.9,0.1,1.2,0.4
			c0.3,0.3,0.4,0.7,0.4,1.1v5.4c0.8-2.2,2.1-4,3.8-5.3s3.4-2.1,5.2-2.1c2,0,3.6,0.6,4.6,1.8s1.6,3.1,1.8,5.6
			c0.8-2.2,2.1-3.9,3.8-5.3c1.7-1.4,3.4-2.1,5.2-2.1c2.2,0,3.8,0.7,4.9,2.1c1,1.4,1.5,3.7,1.5,6.7v12c0,1.1,0.5,1.7,1.4,1.7
			c0.8,0,1.7-0.3,2.5-1l1,1.3c-0.9,1-1.8,1.8-2.8,2.3s-1.9,0.8-2.7,0.8C675,366.9,674,366.5,673.4,365.7z"/>
		<path class="st3" d="M690.5,365.3c-1.7-1.1-3.1-2.5-4-4.5c-1-1.9-1.4-4.1-1.4-6.7c0-2.6,0.5-5,1.6-7c1.1-2,2.6-3.6,4.5-4.7
			s4.2-1.6,6.8-1.6c2.7,0,4.8,0.7,6.3,2.1c1.5,1.4,2.2,3.1,2.2,5.2c0,1.4-0.4,2.7-1.1,4c-0.7,1.3-1.8,2.3-3.3,3.1
			c-1.4,0.8-3.1,1.2-5.1,1.2c-1.1,0-2.3-0.2-3.6-0.6c-1.3-0.4-1.9-1-1.9-1.7c0-0.3,0.1-0.5,0.2-0.8c0.1-0.2,0.3-0.3,0.5-0.3
			c0.1,0,0.4,0.1,1,0.3c0.6,0.2,1.3,0.3,2.2,0.3c2,0,3.6-0.5,4.7-1.6s1.6-2.4,1.6-3.9c0-1.3-0.4-2.4-1.3-3.4c-0.9-1-2-1.4-3.4-1.4
			c-2.2,0-3.8,0.9-5,2.8c-1.2,1.9-1.8,4.6-1.8,8c0,3,0.6,5.3,1.9,6.9c1.3,1.7,3.1,2.5,5.5,2.5c2.9,0,5.3-1,7.2-2.9
			c0.1-0.1,0.3-0.2,0.4-0.2c0.3,0,0.6,0.1,0.9,0.4c0.3,0.3,0.5,0.6,0.5,0.9c0,0.1,0,0.2-0.1,0.3c-0.1,0.1-0.1,0.2-0.1,0.2
			c-1.2,1.5-2.7,2.6-4.4,3.3s-3.5,1.1-5.5,1.1C694.2,366.9,692.2,366.4,690.5,365.3z"/>
		<path class="st3" d="M735.6,365.4l0.6-0.9c0.8-1.1,1.4-2.2,1.8-3.4c0.3-1.2,0.5-2.8,0.5-4.9v-19.1c0-1.6-0.1-2.6-0.3-3.1
			c-0.2-0.5-0.7-0.7-1.4-0.7h-2.2c-1.2,0-2.1,0.1-2.8,0.4c-0.6,0.3-1.2,0.7-1.5,1.3c-0.4,0.6-0.7,1.5-1.1,2.7l-0.3,1.2l-1.7-0.6
			v-8.8l0.8-0.7l0.9,0.7c0.9,0.7,2.7,1,5.6,1h13c2.9,0,4.8-0.3,5.6-1l0.9-0.7l0.8,0.7v8.8l-1.7,0.6l-0.3-1.2c-0.5-1.8-1.1-3-1.8-3.6
			s-1.9-0.9-3.6-0.9H745c-0.7,0-1.2,0.3-1.4,0.8c-0.2,0.5-0.4,1.5-0.4,3.1v22.5c0,1.5,0.2,2.6,0.6,3.2c0.4,0.6,1.3,1.1,2.6,1.5
			l1.2,0.3l-0.6,1.7h-10.9L735.6,365.4z"/>
		<path class="st3" d="M757.3,365.5c-1.4-0.9-2.5-2.3-3.3-4.1s-1.2-4-1.2-6.6c0-4.3,1.2-7.7,3.5-10.1c2.3-2.5,5.5-3.7,9.4-3.7
			c1.3,0,3.1,0.2,5.4,0.6c1.7,0.3,3.2,0.5,4.6,0.6l0.7,0.6l-0.7,0.9c-0.3,0.4-0.4,0.8-0.5,1c-0.1,0.2-0.1,0.6-0.1,1v16.2
			c0,1,0.5,1.5,1.6,1.5c0.8,0,1.6-0.3,2.5-0.9l0.9,1.3c-0.9,1-1.8,1.8-2.8,2.3s-1.9,0.8-2.7,0.8c-1.4,0-2.4-0.4-3-1.2
			c-0.6-0.8-0.9-2.2-0.9-4c-1.3,1.9-2.7,3.3-4.1,4.1c-1.4,0.8-2.9,1.2-4.6,1.2C760.1,366.9,758.6,366.4,757.3,365.5z M770.4,358.5
			v-13.4c-1.4-1-3-1.4-4.8-1.4c-2.4,0-4.2,0.9-5.6,2.7c-1.3,1.8-2,4.3-2,7.5c0,3.1,0.5,5.5,1.6,6.9c1.1,1.5,2.4,2.2,4,2.2
			C766.4,363,768.7,361.5,770.4,358.5z"/>
		<path class="st3" d="M786.2,365.7c-0.6-0.8-0.9-2.2-0.9-4v-29c0-0.4-0.1-0.7-0.2-0.8c-0.1-0.2-0.4-0.2-0.8-0.2h-2.1l-0.5-1.3
			c1-0.9,2-1.6,3.3-2.2c1.2-0.6,2.4-0.8,3.3-0.8c0.5,0,0.9,0.1,1.2,0.4c0.3,0.3,0.4,0.7,0.4,1.2l-0.1,32.9c0,0.5,0.1,1,0.4,1.3
			c0.3,0.3,0.6,0.4,1.1,0.4c0.9,0,1.7-0.3,2.5-1l1,1.3c-0.8,1-1.8,1.7-2.8,2.3c-1,0.6-1.9,0.9-2.7,0.9
			C787.8,366.9,786.8,366.5,786.2,365.7z"/>
		<path class="st3" d="M801.2,365.7c-0.6-0.8-0.9-2.2-0.9-4v-29c0-0.4-0.1-0.7-0.2-0.8c-0.1-0.2-0.4-0.2-0.8-0.2h-2.1l-0.5-1.3
			c1-0.9,2-1.6,3.3-2.2c1.2-0.6,2.4-0.8,3.3-0.8c0.5,0,0.9,0.1,1.2,0.4c0.3,0.3,0.4,0.7,0.4,1.2l-0.1,32.9c0,0.5,0.1,1,0.4,1.3
			c0.3,0.3,0.6,0.4,1.1,0.4c0.9,0,1.7-0.3,2.5-1l1,1.3c-0.8,1-1.8,1.7-2.8,2.3c-1,0.6-1.9,0.9-2.7,0.9
			C802.8,366.9,801.8,366.5,801.2,365.7z"/>
		<path class="st3" d="M820.1,379.1c-1.3-0.7-2.3-1.6-2.9-2.7s-1-2.2-1-3.5c0-1.7,0.6-3.1,1.7-4.3c1.1-1.2,2.7-1.8,4.7-1.8
			c0.3,0,0.5,0,0.7,0.1c0.1,0.1,0.2,0.2,0.2,0.4c0,0.1-0.2,0.5-0.7,1c-0.5,0.5-0.9,1.1-1.2,1.8c-0.3,0.7-0.5,1.6-0.5,2.6
			c0,1.3,0.4,2.4,1.2,3.3c0.8,0.9,1.8,1.3,3.2,1.3c2,0,3.6-0.9,4.6-2.6s1.5-4,1.5-6.8v-7.3c-0.8,1.5-2,2.6-3.5,3.5
			c-1.5,0.8-3.2,1.3-5.1,1.3c-2.3,0-4.2-0.7-5.5-2.2c-1.3-1.4-1.9-3.5-1.9-6.1v-11c0-0.4-0.1-0.7-0.2-0.9c-0.1-0.2-0.4-0.3-0.8-0.3
			h-2.2l-0.4-1.2c0.8-0.9,1.9-1.6,3.1-2.1c1.2-0.5,2.3-0.8,3.4-0.8c0.5,0,0.9,0.1,1.2,0.4c0.3,0.3,0.5,0.6,0.5,1.1v13.7
			c0,2,0.4,3.5,1.2,4.5c0.8,1,2,1.5,3.5,1.5c2.2,0,4-0.8,5.2-2.5c1.2-1.6,1.9-4,1.9-7c0-2.7-0.1-4.8-0.3-6.1
			c-0.2-1.3-0.8-2.5-1.6-3.6l-0.5-0.8l0.5-0.7l6.1-0.6v26.4c0,4.1-1,7.2-3,9.4c-2,2.2-4.7,3.3-8.1,3.3
			C823,380.1,821.4,379.7,820.1,379.1z"/>
	</g>
	<g>
		<path class="st3" d="M449.4,296.4c-9.8,0-16.5-1.9-20.3-5.7c-3.7-3.8-5.7-8.8-5.9-14.8c0-5.2,1-11.3,3.1-18.5
			c2-7.2,4.1-14.1,6.3-20.7c4.3-12.6,8.7-25.1,13.3-37.4c4.6-12.3,9.3-24.1,14-35.5c4.7-11.4,9.2-22.2,13.6-32.6
			c4.4-10.3,8.4-19.8,12.1-28.6c-12.1,0.2-22.5,0.5-31.4,1.1c-8.8,0.5-16.9,1.2-24.1,2c-7.3,0.8-14.9,1.9-22.7,3.3
			c0.9-7.5,4.4-13.2,10.5-17.2s14.4-6.8,24.7-8.4c10.3-1.6,22.1-2.4,35.5-2.4c6.9,0,13.5,0.1,19.6,0.4c6.1,0.3,12,0.7,17.6,1.2
			s11.1,1.1,16.4,1.6c11.2,1.1,20.1,1.8,26.8,2.1c6.7,0.4,11.4,0.5,14.3,0.5c-5.3,5-12.1,8.6-20.1,10.8c-8.1,2.2-16.6,3.6-25.5,4.1
			c-8.9,0.5-17.3,0.8-25.3,0.8c-8.5,21-16.4,42.8-23.5,65.4c-7.1,22.6-13.7,44.9-19.7,67c-2.3,8.5-4.2,15.8-5.7,21.7
			c-1.5,6-2.6,11.4-3.3,16.3c-0.7,4.9-1.1,10.1-1.1,15.6c0,0.9,0,1.9,0.1,3.1C448.8,292.9,449,294.5,449.4,296.4z"/>
		<path class="st3" d="M523.8,281.2c-7.8,0-13.7-2.3-17.6-6.9c-3.9-4.6-5.9-10.2-5.9-16.8c0-4.1,0.7-9.2,2.1-15.5
			c1.4-6.2,3.4-12.8,6-19.6c2.6-6.8,5.6-13.3,8.9-19.3c3.4-6,7-11,10.9-14.8c3.9-3.8,7.8-5.7,11.7-5.7c2.1,0,4,0.6,5.6,1.9
			c1.6,1.2,2.4,3.2,2.4,5.9c0,2.3-1.4,5.8-4.1,10.4c-2.8,4.6-6,10-9.6,16c-3.6,6-6.8,12.3-9.6,18.8c-2.8,6.5-4.1,12.7-4.1,18.5
			c0,5.7,1,9.5,3.1,11.3c2,1.9,5,2.8,8.9,2.8c6,0,12.6-3,19.7-9.1c7.1-6,14.5-16.6,22.1-31.8l4,4.3c-6.2,15.7-14.1,27.8-23.7,36.6
			C545.2,276.8,534.8,281.2,523.8,281.2z M555.3,160.9c-3.4,0-6.5-0.8-9.2-2.5c-2.8-1.7-4.1-4.3-4.1-7.9c0-4.3,2.3-7.9,6.9-10.9
			c4.6-3,9.4-4.5,14.4-4.5c3.2,0,5.9,0.7,8.1,2.1c2.2,1.4,3.3,4,3.3,7.7c0,3.7-2,7.3-6.1,10.8C564.6,159.1,560.1,160.9,555.3,160.9z
			"/>
		<path class="st3" d="M592.9,285.5c-8.4,0-15-2.3-19.9-6.9c-4.9-4.6-7.3-11.6-7.3-20.8c0-5.2,0.7-11.3,2.1-18.4
			c1.4-7.1,3.3-14.7,5.7-22.8c2.4-8.1,5-16.1,7.9-23.9c-1.6-0.5-3.1-1-4.4-1.5c-1.3-0.4-3.1-1.1-5.2-2v-8.3c3.2,0.5,5.6,1,7.2,1.5
			c1.6,0.4,3.6,0.8,5.9,1.2c5-12.6,10.3-24.3,16-35c5.7-10.7,11.2-19.2,16.5-25.6c5.3-6.4,10-9.6,13.9-9.6c2,0,3.7,0.7,5.3,2.1
			c1.6,1.4,2.4,3,2.4,4.8c0,2.1-1.1,5.6-3.2,10.4c-2.1,4.8-4.8,10.2-8.1,16.1c-3.3,6-6.6,11.9-9.9,17.7c-3.3,5.9-6.2,10.9-8.8,15.2
			c-2.6,4.3-4.1,7-4.7,8.3c4.6,0.7,8.9,1.3,12.8,1.7c3.9,0.4,7.8,0.7,11.7,0.7c5.2,0,10.5-0.4,16-1.1c5.5-0.7,11.6-1.7,18.4-2.9
			c4.8-12.8,10.1-25.4,16-37.8c5.9-12.4,11.9-23.5,18-33.4c6.1-9.9,12-17.8,17.6-23.7c5.6-6,10.5-8.9,14.8-8.9c3.6,0,6.3,2,8.3,6
			c2,4,2.9,8.3,2.9,12.9c0,5.9-1.5,13-4.5,21.3c-3,8.4-7.2,17-12.5,25.9c-5.3,8.9-11.6,17.3-18.8,25.1c-7.2,7.8-15,14.1-23.3,18.9
			c-2.3,5.3-4.4,12-6.3,19.9c-1.9,7.9-3.3,15.6-4.4,23.1s-1.6,13.4-1.6,17.9c4.3-11.2,9.1-21.5,14.4-31c5.3-9.4,11.3-17,18-22.7
			c6.7-5.7,13.9-8.5,21.7-8.5c8.2,0,14.1,2.7,17.9,8.1c3.7,5.4,5.6,11.3,5.6,17.7c0,5.2-0.9,10.4-2.8,15.6
			c-1.9,5.2-3.7,10.2-5.6,14.9c-1.9,4.7-2.8,8.9-2.8,12.7c0,3.2,0.8,5.4,2.3,6.7c1.5,1.2,3.2,1.9,4.9,1.9c3.9,0,8.5-2,13.7-6
			c5.2-4,10.4-9.3,15.5-15.9c5.1-6.6,9.3-13.6,12.7-21.1l5.1,4.8c-3.9,8.9-8.6,17.1-14.1,24.5c-5.5,7.5-11.6,13.4-18.3,17.7
			c-6.7,4.4-13.7,6.5-21.2,6.5c-6.8,0-12-1.8-15.6-5.3c-3.6-3.6-5.5-8-5.5-13.3c0-3.7,0.7-7.8,2-12.1c1.3-4.4,2.6-8.8,3.9-13.5
			c1.2-4.6,1.9-8.9,1.9-12.8c0-4.1-0.8-7-2.5-8.8c-1.7-1.8-4-2.7-6.8-2.7c-4.3,0-8.1,1.7-11.6,5.2s-6.6,8-9.5,13.5
			c-2.8,5.5-5.5,11.3-8,17.5c-2.5,6.1-4.9,12-7.3,17.5c-2.4,5.5-4.9,10-7.5,13.5c-2.6,3.5-5.4,5.2-8.4,5.2c-2.7,0-4.8-1.3-6.5-4
			c-1.7-2.7-3.1-5.9-4.1-9.6s-1.8-7.4-2.1-11.1c-0.4-3.6-0.5-6.4-0.5-8.4c-7.1,10.3-15.4,18.7-24.9,25.2
			C613.7,282.2,603.6,285.5,592.9,285.5z M600.7,272.1c8.9,0,17.8-3.9,26.8-11.6c9-7.7,16.8-18.4,23.3-31.9
			c1.1-5.3,2.2-10.4,3.5-15.2c1.2-4.8,2.8-10,4.8-15.7c-5.3,1.1-10.5,1.9-15.5,2.4c-5,0.5-9.9,0.8-14.7,0.8s-9.6-0.3-14.4-0.8
			c-4.8-0.5-9.7-1.2-14.7-2.1c-3.9,8.7-7.1,17.5-9.6,26.4c-2.5,8.9-3.7,18-3.7,27.2c0,7.3,1,12.5,3.1,15.7
			C591.6,270.5,595.3,272.1,600.7,272.1z M687.1,176.1c5.2-4.4,10-9.4,14.4-14.9c4.4-5.5,8.4-11.2,11.9-16.9
			c3.5-5.8,6.4-11.3,8.8-16.5c2.4-5.2,4-9.8,4.9-13.7c0.5-2.5,0.8-4.4,0.8-5.9c-1.4,0.4-3.7,2.3-6.8,5.9c-3.1,3.6-6.7,8.4-10.8,14.5
			c-4.1,6.1-8.2,13.3-12.3,21.3C694,157.9,690.3,166.6,687.1,176.1z"/>
		<path class="st3" d="M828,280.1c-6.6,0-11.9-1.7-16-5.2c-4.1-3.5-6.1-8.1-6.1-14c0-5,1.2-10.3,3.7-16c2.5-5.7,5-11.3,7.6-16.8
			c2.6-5.5,3.9-10.4,3.9-14.7c0-4.1-1.3-7.5-4-10.3c-2.7-2.8-5.8-5-9.3-6.8c-3.9,9.8-8.3,19.3-13.2,28.4
			c-4.9,9.2-8.9,16.3-11.9,21.5l-4-7.7c2.5-4.6,5.8-11.2,9.9-19.7c4.1-8.5,8-18.1,11.7-28.5c-1.8-1.8-2.7-4.2-2.7-7.2
			c0-4.6,1.4-9,4.3-13.1c2.8-4.1,5.6-6.1,8.3-6.1c2.1,0,3.7,1.2,4.7,3.6c1,2.4,1.5,4,1.5,4.9c0,0.9-0.4,2.5-1.2,4.8
			c-0.8,2.3-1.4,4-1.7,5.1c0.2,2,1.7,3.9,4.7,5.7c2.9,1.9,6.3,4,10,6.5c3.7,2.5,7,5.6,9.9,9.3c2.8,3.7,4.3,8.5,4.3,14.1
			c0,5.2-1.2,10.4-3.5,15.7c-2.3,5.3-4.6,10.3-6.9,14.9c-2.3,4.6-3.5,8.6-3.5,12c0,2.5,0.7,4.1,2,4.9s2.9,1.2,4.7,1.2
			c4.3,0,8.7-1.3,13.3-3.9c4.6-2.6,9.2-5.9,13.6-10c4.4-4.1,8.4-8.4,11.7-12.9c3.4-4.5,6-8.7,7.7-12.4l6.4,4.8
			c-3.4,7.7-8.3,15.2-14.7,22.5c-6.4,7.4-13.5,13.4-21.3,18.1C843.9,277.8,836,280.1,828,280.1z"/>
		<path class="st3" d="M997.7,286.3c-10.9,0-19.2-2.9-25.1-8.7s-9.3-12.8-10.1-20.9c-7.7,8.9-16.4,15.8-26.1,20.8
			c-9.8,5-19.7,7.5-29.6,7.5c-11.6,0-20.4-3.1-26.5-9.2c-6.1-6.1-9.2-13.7-9.2-22.8c0-7.8,2-16.1,6-24.8c4-8.7,9.4-16.9,16.1-24.7
			c6.8-7.7,14.2-14.1,22.4-18.9c8.2-4.9,16.5-7.3,25.1-7.3c4.6,0,8.9,1.2,12.9,3.5c4,2.3,6,7,6,14.1c0,6.6-2,12.8-5.9,18.5
			c-3.9,5.8-9.2,10.9-15.7,15.3c-6.6,4.4-13.8,8.1-21.7,10.9c-7.9,2.8-15.9,4.7-23.9,5.6c-0.2,0.7-0.3,1.6-0.4,2.8
			c-0.1,1.2-0.1,2.4-0.1,3.9c0,3.2,0.5,6.4,1.6,9.7c1.1,3.3,3.1,6.1,6,8.4c2.9,2.3,7.3,3.5,13.2,3.5c9.4,0,18.6-3.1,27.6-9.2
			c9-6.1,16.9-13.8,23.6-23.1c1.6-7.3,4.4-14.5,8.5-21.6c4.1-7.1,9.1-13.6,15.1-19.5c6-5.9,12.4-10.6,19.5-14.1
			c7-3.6,14.2-5.3,21.5-5.3c4.8,0,9.2,1.2,13.2,3.5c4,2.3,6,7.1,6,14.4c0,8.7-3.1,16.5-9.2,23.2c-6.1,6.8-14.1,12.2-23.7,16.4
			c-9.7,4.2-20,6.9-30.8,8.1c-0.2,0.9-0.3,1.8-0.4,2.8c-0.1,1-0.1,2.2-0.1,3.6c0,3.2,0.5,6.5,1.5,9.9c1,3.4,2.9,6.3,5.7,8.7
			c2.8,2.4,7.1,3.6,12.8,3.6c7.6,0,15.3-2.2,23.1-6.7c7.7-4.4,14.9-10.3,21.6-17.5c6.7-7.2,12.1-15,16.4-23.3l4.8,3.7
			c-4.8,10.7-11,20.1-18.5,28.4c-7.6,8.3-15.9,14.8-24.9,19.6C1016.6,283.9,1007.3,286.3,997.7,286.3z M895.2,236.6
			c5-1.8,10.3-4.1,15.9-7.1c5.6-2.9,10.9-6.3,16-10.1c5.1-3.8,9.2-7.9,12.4-12.3c3.2-4.4,4.8-8.8,4.8-13.5c0-1.4-0.3-2.5-0.9-3.3
			c-0.6-0.8-1.9-1.2-3.9-1.2c-3.7,0-7.8,1.4-12.1,4.1c-4.4,2.8-8.6,6.4-12.8,11.1c-4.2,4.6-8,9.7-11.3,15.3
			C899.9,225.3,897.2,231,895.2,236.6z M986.8,236.6c4.6-1.6,9.6-3.6,14.8-6c5.2-2.4,10.2-5.2,14.8-8.4c4.6-3.2,8.4-6.8,11.5-10.8
			c3-4,4.5-8.4,4.5-13.2c0-2.1-0.4-3.6-1.1-4.4c-0.7-0.8-2-1.2-4-1.2c-5,0-10.1,2.1-15.5,6.3c-5.3,4.2-10.2,9.6-14.7,16.3
			C992.7,221.8,989.2,229,986.8,236.6z"/>
	</g>
</g>
</svg>
