<?xml version="1.0" encoding="utf-8"?>
<!-- Generator: Adobe Illustrator 21.0.0, SVG Export Plug-In . SVG Version: 6.00 Build 0)  -->
<svg version="1.1" id="Warstwa_1" xmlns="http://www.w3.org/2000/svg" xmlns:xlink="http://www.w3.org/1999/xlink" x="0px" y="0px"
	 viewBox="0 0 1032.5 351.6" style="enable-background:new 0 0 1032.5 351.6;" xml:space="preserve">
<style type="text/css">
	.st0{display:none;}
	.st1{display:inline;fill:none;stroke:#ED1818;stroke-miterlimit:10;}
	.st2{display:inline;}
	.st3{enable-background:new    ;}
	.st4{fill:#9679E6;}
</style>
<g id="Warstwa_2">
</g>
<g id="Warstwa_1_1_">
	<g class="st0">
		<line class="st1" x1="866.2" y1="-589.5" x2="-633.8" y2="910.5"/>
		<polygon class="st2" points="-154.3,-495.6 1033.7,-495.6 887.6,-301.5 -296.3,-301.5 		"/>
		<polygon class="st2" points="-407.8,-153.6 780.2,-153.6 634.2,52.5 -549.8,52.5 		"/>
		<polygon class="st2" points="-179.8,580.5 532.2,580.5 250.2,776.5 -325.8,776.5 		"/>
		<path class="st2" d="M634.2-7.5"/>
		<path class="st2" d="M577.2-153.6l-295,422.1c458.2,8.5,476.6,510.5,17,508h-220l228-104v-92c126.6-1.5,124.7-167.5-1.9-166
			l-338.1-6.1l398-561.9L577.2-153.6L577.2-153.6z"/>
		<polygon class="st2" points="430.7,-495.6 -515.4,767.1 -733.3,776.4 188.7,-495.6 		"/>
	</g>
	<g class="st0">
		<polygon class="st2" points="19.5,-364.7 117,-579 -155.5,-579 -253,-364.7 		"/>
		<polygon class="st2" points="292,-364.7 389.5,-579 117,-579 19.5,-364.7 		"/>
		<polygon class="st2" points="564.5,-364.7 662,-579 389.5,-579 292,-364.7 		"/>
		<polygon class="st2" points="-155.5,-579 -467.8,-579 -565.3,-364.7 -253,-364.7 		"/>
		<polygon class="st2" points="837,-364.7 934.5,-579 662,-579 564.5,-364.7 		"/>
		<polygon class="st2" points="-78,-150.4 -468,-150.4 -565.5,63.9 -175.5,63.9 		"/>
		<polygon class="st2" points="97,63.9 194.5,-150.4 -78,-150.4 -175.5,63.9 		"/>
		<polygon class="st2" points="-468,278.1 -565.5,492.4 -98,492.4 -0.5,278.1 		"/>
		<polygon class="st2" points="174.5,492.4 447.1,492.4 544.6,278.1 272,278.1 		"/>
		<polygon class="st2" points="-565.5,921 -293,921 -195.5,706.7 -468,706.7 		"/>
		<polygon class="st2" points="77.1,706.7 -20.4,921 252.1,921 349.6,706.7 		"/>
		<polygon class="st2" points="369.5,63.9 642.1,63.9 739.5,-150.4 467,-150.4 		"/>
		<polygon class="st2" points="272,278.1 544.6,278.1 642.1,63.9 369.5,63.9 		"/>
		<path class="st2" d="M544.6,278.1l-97.5,214.3c259.8-0.2,260,214.1,0.2,214.3c-28.5,0-60.8,0-97.7,0l0,0l0,0L252.1,921
			c114.7,0,214.2,0,292.5,0C1002,921,1002,278.1,544.6,278.1z M583.3,492.4L583.3,492.4h136.2H583.3z"/>
		<path class="st2" d="M349.6,706.7L252.1,921L349.6,706.7z"/>
		<path class="st2" d="M583.3,492.4h136.3H583.3z"/>
	</g>
	<g class="st3">
		<path class="st4" d="M387.2,328.2l0.6-0.9c0.8-1.1,1.4-2.2,1.8-3.4c0.3-1.2,0.5-2.8,0.5-4.9v-19.1c0-1.6-0.1-2.6-0.3-3.1
			c-0.2-0.5-0.7-0.7-1.4-0.7h-2.2c-1.2,0-2.1,0.1-2.8,0.4c-0.6,0.3-1.2,0.7-1.5,1.3c-0.4,0.6-0.7,1.5-1.1,2.7l-0.3,1.2l-1.7-0.6
			v-8.8l0.8-0.7l0.9,0.7c0.9,0.7,2.7,1,5.6,1h13c2.9,0,4.8-0.3,5.6-1l0.9-0.7l0.8,0.7v8.8l-1.7,0.6l-0.3-1.2c-0.5-1.8-1.1-3-1.8-3.6
			c-0.7-0.6-1.9-0.9-3.6-0.9h-2.3c-0.7,0-1.2,0.3-1.4,0.8c-0.2,0.5-0.4,1.5-0.4,3.1v22.5c0,1.5,0.2,2.6,0.6,3.2
			c0.4,0.6,1.3,1.1,2.6,1.5l1.2,0.3l-0.6,1.7h-10.9L387.2,328.2z"/>
		<path class="st4" d="M410.7,327.5c-1.3-1.4-2-3.5-2-6.1v-12.4c0-0.8-0.3-1.2-1-1.2h-2.2l-0.4-1.2c0.8-0.9,1.9-1.6,3.1-2.1
			c1.2-0.5,2.3-0.8,3.4-0.8c0.5,0,0.9,0.1,1.2,0.4c0.3,0.3,0.5,0.6,0.5,1.1v15.1c0,2,0.4,3.5,1.2,4.5c0.8,1,2,1.6,3.6,1.6
			c2.2,0,4-1,5.2-2.9c1.2-1.9,1.9-4.6,1.9-8c0-2.4-0.1-4.3-0.4-5.7c-0.3-1.4-0.8-2.7-1.6-4l-0.6-0.8l0.6-0.7l6.1-0.6v20.9
			c0,1,0.4,1.5,1.3,1.5c0.8,0,1.7-0.3,2.5-0.9l1,1.3c-0.8,1-1.7,1.7-2.7,2.3c-1,0.6-1.9,0.9-2.8,0.9c-1.3,0-2.3-0.4-2.9-1.2
			c-0.6-0.8-0.9-2-0.9-3.6c-0.8,1.5-2,2.7-3.5,3.5c-1.5,0.9-3.2,1.3-5,1.3C413.9,329.7,412,329,410.7,327.5z"/>
		<path class="st4" d="M441,328.4c-0.8-0.9-1.2-2-1.2-3.5v-17.5h-4.3c0-0.9,0.1-1.5,0.2-1.7c0.1-0.3,0.5-0.5,1-0.6
			c1.8-0.4,3-1.2,3.7-2.2c0.7-1,1.3-2.4,1.6-4.1c0.1-0.5,0.2-0.8,0.5-1c0.3-0.1,0.9-0.2,1.8-0.2v6.7h6.4c0,0.7-0.1,1.3-0.3,1.9
			c-0.2,0.5-0.5,1-0.8,1.2h-5.3v16.1c0,1,0.1,1.7,0.4,2.2c0.3,0.4,0.8,0.6,1.5,0.6c1,0,2.1-0.5,3.3-1.6l0.9,1.3
			c-0.8,1.1-1.9,2-3.1,2.7s-2.3,1-3.3,1C442.8,329.7,441.7,329.3,441,328.4z"/>
		<path class="st4" d="M457.3,326.2c-2.2-2.4-3.3-5.5-3.3-9.5c0-4,1.1-7.1,3.3-9.5s5.2-3.5,8.9-3.5c2.4,0,4.6,0.5,6.4,1.6
			c1.8,1.1,3.2,2.6,4.2,4.5c1,1.9,1.5,4.2,1.5,6.9s-0.5,4.9-1.5,6.9c-1,2-2.4,3.5-4.3,4.6c-1.8,1.1-3.9,1.6-6.4,1.6
			C462.5,329.7,459.5,328.5,457.3,326.2z M471.2,324.2c1.3-1.9,1.9-4.4,1.9-7.4c0-1.6-0.2-3.2-0.7-4.7c-0.4-1.6-1.2-2.9-2.2-4.1
			c-1-1.1-2.3-1.7-3.9-1.7c-2.2,0-3.9,1-5.2,2.9c-1.3,1.9-1.9,4.4-1.9,7.6c0,3.1,0.6,5.6,1.8,7.5c1.2,1.9,2.9,2.8,5,2.8
			C468.2,327,469.9,326.1,471.2,324.2z"/>
		<path class="st4" d="M483,327.5l0.9-0.3c0.9-0.1,1.5-0.5,1.7-1c0.3-0.5,0.4-1.4,0.4-2.7v-13.9c0-0.4-0.1-0.7-0.2-0.8
			c-0.1-0.2-0.4-0.2-0.8-0.2H483l-0.5-1.3c1-0.9,2-1.6,3.3-2.1c1.2-0.5,2.3-0.8,3.3-0.8c0.5,0,0.9,0.1,1.2,0.4
			c0.3,0.3,0.4,0.7,0.4,1.1v5.4h0.3c0.6-2.2,1.5-4,2.7-5.4c1.2-1.4,2.5-2,3.9-2c1.4,0,2.5,0.4,3.4,1.3c0.9,0.9,1.3,2.1,1.3,3.7
			c0,1.2-0.5,2.3-1.4,3.1c-0.9,0.8-2.1,1.3-3.5,1.3c-0.7,0-1-0.2-1-0.5c0-0.1,0.1-0.4,0.4-0.8c0.3-0.4,0.5-0.8,0.7-1.2
			c0.2-0.4,0.3-0.9,0.3-1.4c0-0.6-0.1-1.1-0.4-1.5c-0.3-0.3-0.7-0.5-1.2-0.5c-0.8,0-1.6,0.5-2.4,1.4c-0.8,1-1.6,2.5-2.2,4.6
			c-0.6,2.1-0.9,4.7-0.9,8c0,1.5,0.1,2.7,0.4,3.6c0.2,0.9,0.6,1.8,1.2,2.6l0.6,0.8l-0.6,0.8h-8.7L483,327.5z"/>
		<path class="st4" d="M504.3,302.2l2.3-4.5c0.4-0.8,0.5-1.4,0.5-2c0-0.4-0.1-0.7-0.2-1s-0.4-0.6-0.9-0.8l-0.9-0.7l-0.2-1.2l0.9-0.4
			c0.9-0.3,1.8-0.5,2.7-0.5c2.2,0,3.3,1.1,3.3,3.2c0,0.9-0.3,1.9-1,2.9s-1.7,2.3-3.1,3.8l-2,2.1L504.3,302.2z"/>
		<path class="st4" d="M519.7,328c-1.6-1.2-2.5-2.7-2.5-4.5c0-1.1,0.4-2,1.2-2.8c0.8-0.7,1.8-1.1,3-1.1c0.3,0,0.5,0.1,0.7,0.2
			c0.2,0.1,0.3,0.3,0.3,0.4c0,0.1-0.1,0.4-0.3,1c-0.2,0.5-0.3,1.2-0.3,1.9c0,1.4,0.5,2.4,1.5,3.1c1,0.7,2.1,1.1,3.3,1.1
			c1.4,0,2.5-0.4,3.4-1.1s1.3-1.7,1.3-2.9c0-1.1-0.5-1.9-1.4-2.6c-0.9-0.7-2.3-1.4-4-2.1c-1.6-0.7-3-1.4-4-2c-1.1-0.6-2-1.4-2.8-2.5
			s-1.2-2.3-1.2-3.7c0-1.9,0.9-3.5,2.6-4.8s3.9-1.9,6.5-1.9c2.4,0,4.3,0.4,5.9,1.3c1.5,0.9,2.3,2.1,2.3,3.7c0,1.3-0.4,2.3-1.2,3.1
			c-0.8,0.8-1.8,1.2-3,1.2c-0.7,0-1.1-0.2-1.1-0.7c0-0.1,0.1-0.5,0.4-1s0.4-1.1,0.4-1.8c0-1.2-0.4-2.1-1.3-2.7s-1.8-0.9-2.9-0.9
			c-1.4,0-2.4,0.3-3.2,1c-0.8,0.7-1.2,1.5-1.2,2.6c0,1.2,0.5,2.3,1.5,3c1,0.8,2.5,1.5,4.3,2.2c1.6,0.7,2.9,1.3,4,1.9s2,1.3,2.7,2.2
			c0.7,0.9,1.1,1.9,1.1,3.2c0,2.3-0.9,4.1-2.7,5.5s-4.2,2.1-7.2,2.1C523.4,329.7,521.4,329.1,519.7,328z"/>
		<path class="st4" d="M564.9,328.2l0.6-0.9c0.8-1.1,1.4-2.2,1.8-3.4c0.3-1.2,0.5-2.8,0.5-4.9v-19.1c0-1.6-0.1-2.6-0.3-3.1
			c-0.2-0.5-0.7-0.7-1.4-0.7h-2.2c-1.2,0-2.1,0.1-2.8,0.4c-0.6,0.3-1.2,0.7-1.5,1.3c-0.4,0.6-0.7,1.5-1.1,2.7l-0.3,1.2l-1.7-0.6
			v-8.8l0.8-0.7l0.9,0.7c0.9,0.7,2.7,1,5.6,1h13c2.9,0,4.8-0.3,5.6-1l0.9-0.7l0.8,0.7v8.8l-1.7,0.6l-0.3-1.2c-0.5-1.8-1.1-3-1.8-3.6
			c-0.7-0.6-1.9-0.9-3.6-0.9h-2.3c-0.7,0-1.2,0.3-1.4,0.8c-0.2,0.5-0.4,1.5-0.4,3.1v22.5c0,1.5,0.2,2.6,0.6,3.2
			c0.4,0.6,1.3,1.1,2.6,1.5l1.2,0.3l-0.6,1.7h-10.9L564.9,328.2z"/>
		<path class="st4" d="M588.3,328.5c-0.6-0.8-0.9-2.2-0.9-4v-15.4c0-0.4-0.1-0.7-0.2-0.9c-0.1-0.2-0.4-0.3-0.8-0.3h-2.2l-0.4-1.2
			c1-0.9,2-1.6,3.3-2.1c1.2-0.5,2.3-0.8,3.2-0.8c0.5,0,0.9,0.1,1.2,0.4c0.3,0.3,0.5,0.6,0.5,1.1v19.4c0,1.1,0.5,1.7,1.5,1.7
			c0.8,0,1.6-0.3,2.5-1l0.9,1.3c-0.9,1-1.9,1.7-2.9,2.3c-1,0.6-1.9,0.9-2.7,0.9C589.9,329.7,588.9,329.3,588.3,328.5z M587.7,298.4
			c-0.7-0.8-1.1-1.5-1.1-2.1c0-0.6,0.4-1.3,1.1-2.1c0.7-0.8,1.4-1.2,1.9-1.2c0.6,0,1.3,0.4,2,1.2c0.7,0.8,1.1,1.5,1.1,2.1
			c0,0.6-0.4,1.3-1.1,2.1c-0.7,0.8-1.4,1.2-2,1.2C589,299.5,588.4,299.2,587.7,298.4z"/>
		<path class="st4" d="M634.8,328.5c-0.6-0.8-0.9-2.2-0.9-4v-11.8c0-3.4-1.2-5.1-3.7-5.1c-1.4,0-2.6,0.5-3.6,1.6
			c-1.1,1.1-1.9,2.6-2.5,4.6c-0.6,2-1,4.2-1,6.8v0.6c0,1.7,0.1,3,0.4,4.1s0.9,2.1,1.7,3.1l-0.6,0.8h-6v-16.4c0-1.7-0.3-3-1-3.8
			c-0.6-0.9-1.6-1.3-2.8-1.3c-1.4,0-2.7,0.6-3.8,1.7c-1.1,1.1-1.9,2.7-2.5,4.8c-0.6,2-0.9,4.4-0.9,7.1c0,1.5,0.1,2.8,0.4,3.7
			c0.2,1,0.6,1.8,1.2,2.7l0.6,0.8l-0.6,0.8h-8.7l-0.5-1.5l0.9-0.3c0.9-0.1,1.5-0.5,1.7-1s0.4-1.4,0.4-2.7v-13.9
			c0-0.4-0.1-0.7-0.2-0.8c-0.1-0.2-0.4-0.2-0.8-0.2H600l-0.5-1.3c1-0.9,2-1.6,3.3-2.1c1.2-0.5,2.3-0.8,3.3-0.8
			c0.5,0,0.9,0.1,1.2,0.4c0.3,0.3,0.4,0.7,0.4,1.1v5.4c0.8-2.2,2.1-4,3.8-5.3c1.7-1.4,3.4-2.1,5.2-2.1c2,0,3.6,0.6,4.6,1.8
			c1,1.2,1.6,3.1,1.8,5.6c0.8-2.2,2.1-3.9,3.8-5.3c1.7-1.4,3.4-2.1,5.2-2.1c2.2,0,3.8,0.7,4.9,2.1c1,1.4,1.5,3.7,1.5,6.7v12
			c0,1.1,0.5,1.7,1.4,1.7c0.8,0,1.7-0.3,2.5-1l1,1.3c-0.9,1-1.8,1.8-2.8,2.3s-1.9,0.8-2.7,0.8C636.3,329.7,635.4,329.3,634.8,328.5z
			"/>
		<path class="st4" d="M651.8,328.1c-1.7-1.1-3.1-2.5-4-4.5c-1-1.9-1.4-4.1-1.4-6.7c0-2.6,0.5-5,1.6-7s2.6-3.6,4.5-4.7
			s4.2-1.6,6.8-1.6c2.7,0,4.8,0.7,6.3,2.1c1.5,1.4,2.2,3.1,2.2,5.2c0,1.4-0.4,2.7-1.1,4c-0.8,1.3-1.8,2.3-3.3,3.1
			c-1.4,0.8-3.1,1.2-5.1,1.2c-1.1,0-2.3-0.2-3.6-0.6c-1.3-0.4-1.9-1-1.9-1.7c0-0.3,0.1-0.5,0.2-0.8c0.1-0.2,0.3-0.3,0.5-0.3
			c0.1,0,0.4,0.1,1,0.3c0.6,0.2,1.3,0.3,2.2,0.3c2,0,3.6-0.5,4.7-1.6c1.1-1.1,1.6-2.4,1.6-3.9c0-1.3-0.4-2.4-1.3-3.4s-2-1.4-3.4-1.4
			c-2.2,0-3.8,0.9-5,2.8c-1.2,1.9-1.8,4.6-1.8,8c0,3,0.6,5.3,1.9,6.9c1.3,1.7,3.1,2.5,5.5,2.5c2.9,0,5.3-1,7.2-2.9
			c0.1-0.1,0.3-0.2,0.4-0.2c0.3,0,0.6,0.1,0.9,0.4c0.3,0.3,0.5,0.6,0.5,0.9c0,0.1,0,0.2-0.1,0.3s-0.1,0.2-0.1,0.2
			c-1.2,1.5-2.7,2.6-4.4,3.3s-3.5,1.1-5.5,1.1C655.6,329.7,653.6,329.2,651.8,328.1z"/>
		<path class="st4" d="M696.9,328.2l0.6-0.9c0.8-1.1,1.4-2.2,1.8-3.4c0.3-1.2,0.5-2.8,0.5-4.9v-19.1c0-1.6-0.1-2.6-0.3-3.1
			c-0.2-0.5-0.7-0.7-1.4-0.7h-2.2c-1.2,0-2.1,0.1-2.8,0.4c-0.6,0.3-1.2,0.7-1.5,1.3c-0.4,0.6-0.7,1.5-1.1,2.7l-0.3,1.2l-1.7-0.6
			v-8.8l0.8-0.7l0.9,0.7c0.9,0.7,2.7,1,5.6,1h13c2.9,0,4.8-0.3,5.6-1l0.9-0.7l0.8,0.7v8.8l-1.7,0.6l-0.3-1.2c-0.5-1.8-1.1-3-1.8-3.6
			s-1.9-0.9-3.6-0.9h-2.3c-0.7,0-1.2,0.3-1.4,0.8c-0.2,0.5-0.4,1.5-0.4,3.1v22.5c0,1.5,0.2,2.6,0.6,3.2c0.4,0.6,1.3,1.1,2.6,1.5
			l1.2,0.3l-0.6,1.7h-10.9L696.9,328.2z"/>
		<path class="st4" d="M718.6,328.3c-1.4-0.9-2.5-2.3-3.3-4.1s-1.2-4-1.2-6.6c0-4.3,1.2-7.7,3.5-10.1c2.3-2.5,5.5-3.7,9.4-3.7
			c1.3,0,3.1,0.2,5.4,0.6c1.7,0.3,3.2,0.5,4.6,0.6l0.7,0.6l-0.7,0.9c-0.3,0.4-0.4,0.8-0.5,1c-0.1,0.2-0.1,0.6-0.1,1v16.2
			c0,1,0.5,1.5,1.6,1.5c0.8,0,1.6-0.3,2.5-0.9l0.9,1.3c-0.9,1-1.8,1.8-2.8,2.3s-1.9,0.8-2.7,0.8c-1.4,0-2.4-0.4-3-1.2
			c-0.6-0.8-0.9-2.2-0.9-4c-1.3,1.9-2.7,3.3-4.1,4.1c-1.4,0.8-2.9,1.2-4.6,1.2C721.5,329.7,720,329.2,718.6,328.3z M731.7,321.3
			v-13.4c-1.4-1-3-1.4-4.8-1.4c-2.4,0-4.2,0.9-5.6,2.7c-1.3,1.8-2,4.3-2,7.5c0,3.1,0.5,5.5,1.6,6.9c1.1,1.5,2.4,2.2,4,2.2
			C727.8,325.8,730,324.3,731.7,321.3z"/>
		<path class="st4" d="M747.6,328.5c-0.6-0.8-0.9-2.2-0.9-4v-29c0-0.4-0.1-0.7-0.2-0.8c-0.1-0.2-0.4-0.2-0.8-0.2h-2.1l-0.5-1.3
			c1-0.9,2-1.6,3.3-2.2c1.2-0.6,2.4-0.8,3.3-0.8c0.5,0,0.9,0.1,1.2,0.4c0.3,0.3,0.4,0.7,0.4,1.2l-0.1,32.9c0,0.5,0.1,1,0.4,1.3
			c0.3,0.3,0.6,0.4,1.1,0.4c0.9,0,1.7-0.3,2.5-1l1,1.3c-0.8,1-1.8,1.7-2.8,2.3c-1,0.6-1.9,0.9-2.7,0.9
			C749.2,329.7,748.2,329.3,747.6,328.5z"/>
		<path class="st4" d="M762.5,328.5c-0.6-0.8-0.9-2.2-0.9-4v-29c0-0.4-0.1-0.7-0.2-0.8c-0.1-0.2-0.4-0.2-0.8-0.2h-2.1l-0.5-1.3
			c1-0.9,2-1.6,3.3-2.2c1.2-0.6,2.4-0.8,3.3-0.8c0.5,0,0.9,0.1,1.2,0.4c0.3,0.3,0.4,0.7,0.4,1.2l-0.1,32.9c0,0.5,0.1,1,0.4,1.3
			c0.3,0.3,0.6,0.4,1.1,0.4c0.9,0,1.7-0.3,2.5-1l1,1.3c-0.8,1-1.8,1.7-2.8,2.3c-1,0.6-1.9,0.9-2.7,0.9
			C764.1,329.7,763.1,329.3,762.5,328.5z"/>
		<path class="st4" d="M781.5,341.9c-1.3-0.7-2.3-1.6-2.9-2.7s-1-2.2-1-3.5c0-1.7,0.6-3.1,1.7-4.3c1.1-1.2,2.7-1.8,4.7-1.8
			c0.3,0,0.5,0,0.7,0.1c0.1,0.1,0.2,0.2,0.2,0.4c0,0.1-0.2,0.5-0.7,1c-0.5,0.5-0.9,1.1-1.2,1.8c-0.3,0.7-0.5,1.6-0.5,2.6
			c0,1.3,0.4,2.4,1.2,3.3c0.8,0.9,1.8,1.3,3.2,1.3c2,0,3.6-0.9,4.6-2.6s1.5-4,1.5-6.8v-7.3c-0.8,1.5-2,2.6-3.5,3.5
			c-1.5,0.8-3.2,1.3-5.1,1.3c-2.3,0-4.2-0.7-5.5-2.2c-1.3-1.4-1.9-3.5-1.9-6.1v-11c0-0.4-0.1-0.7-0.2-0.9c-0.1-0.2-0.4-0.3-0.8-0.3
			h-2.2l-0.4-1.2c0.8-0.9,1.9-1.6,3.1-2.1c1.2-0.5,2.3-0.8,3.4-0.8c0.5,0,0.9,0.1,1.2,0.4c0.3,0.3,0.5,0.6,0.5,1.1v13.7
			c0,2,0.4,3.5,1.2,4.5c0.8,1,2,1.5,3.5,1.5c2.2,0,4-0.8,5.2-2.5c1.2-1.6,1.9-4,1.9-7c0-2.7-0.1-4.8-0.3-6.1
			c-0.2-1.3-0.8-2.5-1.6-3.6l-0.5-0.8l0.5-0.7l6.1-0.6v26.4c0,4.1-1,7.2-3,9.4c-2,2.2-4.7,3.3-8.1,3.3
			C784.3,342.9,782.8,342.5,781.5,341.9z"/>
	</g>
	<g class="st3">
		<path class="st4" d="M410.7,266.5c-9.8,0-16.5-1.9-20.3-5.7c-3.7-3.8-5.7-8.8-5.9-14.8c0-5.2,1-11.3,3.1-18.5
			c2-7.2,4.1-14.1,6.3-20.7c4.3-12.6,8.7-25.1,13.3-37.4c4.6-12.3,9.3-24.1,14-35.5c4.7-11.4,9.2-22.2,13.6-32.6
			c4.4-10.3,8.4-19.8,12.1-28.6c-12.1,0.2-22.5,0.5-31.4,1.1c-8.8,0.5-16.9,1.2-24.1,2c-7.3,0.8-14.9,1.9-22.7,3.3
			c0.9-7.5,4.4-13.2,10.5-17.2c6.1-4,14.4-6.8,24.7-8.4c10.3-1.6,22.1-2.4,35.5-2.4c6.9,0,13.5,0.1,19.6,0.4
			c6.1,0.3,12,0.7,17.6,1.2c5.6,0.5,11.1,1.1,16.4,1.6c11.2,1.1,20.1,1.8,26.8,2.1c6.7,0.4,11.4,0.5,14.3,0.5
			c-5.3,5-12.1,8.6-20.1,10.8c-8.1,2.2-16.6,3.6-25.5,4.1c-8.9,0.5-17.3,0.8-25.3,0.8c-8.5,21-16.4,42.8-23.5,65.4
			c-7.1,22.6-13.7,44.9-19.7,67c-2.3,8.5-4.2,15.8-5.7,21.7c-1.5,6-2.6,11.4-3.3,16.3c-0.7,4.9-1.1,10.1-1.1,15.6
			c0,0.9,0,1.9,0.1,3.1C410.1,263,410.3,264.6,410.7,266.5z"/>
		<path class="st4" d="M485.2,251.3c-7.8,0-13.7-2.3-17.6-6.9c-3.9-4.6-5.9-10.2-5.9-16.8c0-4.1,0.7-9.2,2.1-15.5
			c1.4-6.2,3.4-12.8,6-19.6c2.6-6.8,5.6-13.3,8.9-19.3c3.4-6,7-11,10.9-14.8c3.9-3.8,7.8-5.7,11.7-5.7c2.1,0,4,0.6,5.6,1.9
			c1.6,1.2,2.4,3.2,2.4,5.9c0,2.3-1.4,5.8-4.1,10.4c-2.8,4.6-6,10-9.6,16c-3.6,6-6.9,12.3-9.6,18.8c-2.8,6.5-4.1,12.7-4.1,18.5
			c0,5.7,1,9.5,3.1,11.3c2,1.9,5,2.8,8.9,2.8c6,0,12.6-3,19.7-9.1c7.1-6,14.5-16.6,22.1-31.8l4,4.3c-6.2,15.7-14.1,27.8-23.7,36.6
			C506.5,247,496.2,251.3,485.2,251.3z M516.6,131c-3.4,0-6.5-0.8-9.2-2.5c-2.8-1.7-4.1-4.3-4.1-7.9c0-4.3,2.3-7.9,6.9-10.9
			c4.6-3,9.4-4.5,14.4-4.5c3.2,0,5.9,0.7,8.1,2.1c2.2,1.4,3.3,4,3.3,7.7s-2,7.3-6.1,10.8C525.9,129.3,521.4,131,516.6,131z"/>
		<path class="st4" d="M554.3,255.6c-8.4,0-15-2.3-19.9-6.9c-4.9-4.6-7.3-11.6-7.3-20.8c0-5.2,0.7-11.3,2.1-18.4
			c1.4-7.1,3.3-14.7,5.7-22.8c2.4-8.1,5-16.1,7.9-23.9c-1.6-0.5-3.1-1-4.4-1.5c-1.3-0.4-3.1-1.1-5.2-2V151c3.2,0.5,5.6,1,7.2,1.5
			c1.6,0.4,3.6,0.8,5.9,1.2c5-12.6,10.3-24.3,16-35c5.7-10.7,11.2-19.2,16.5-25.6c5.3-6.4,10-9.6,13.9-9.6c2,0,3.7,0.7,5.3,2.1
			c1.6,1.4,2.4,3,2.4,4.8c0,2.1-1.1,5.6-3.2,10.4s-4.8,10.2-8.1,16.1c-3.3,6-6.6,11.9-9.9,17.7c-3.3,5.9-6.2,10.9-8.8,15.2
			c-2.6,4.3-4.1,7-4.7,8.3c4.6,0.7,8.9,1.3,12.8,1.7c3.9,0.4,7.8,0.7,11.7,0.7c5.2,0,10.5-0.4,16-1.1c5.5-0.7,11.6-1.7,18.4-2.9
			c4.8-12.8,10.1-25.4,16-37.8c5.9-12.4,11.9-23.5,18-33.4c6.1-9.9,12-17.8,17.6-23.7c5.6-6,10.5-8.9,14.8-8.9c3.6,0,6.3,2,8.3,6
			c2,4,2.9,8.3,2.9,12.9c0,5.9-1.5,13-4.5,21.3c-3,8.4-7.2,17-12.5,25.9c-5.3,8.9-11.6,17.3-18.8,25.1c-7.2,7.8-15,14.1-23.3,18.9
			c-2.3,5.3-4.4,12-6.3,19.9c-1.9,7.9-3.3,15.6-4.4,23.1c-1.1,7.5-1.6,13.4-1.6,17.9c4.3-11.2,9.1-21.5,14.4-31
			c5.3-9.4,11.3-17,18-22.7c6.7-5.7,13.9-8.5,21.7-8.5c8.2,0,14.1,2.7,17.9,8.1c3.7,5.4,5.6,11.3,5.6,17.7c0,5.2-0.9,10.4-2.8,15.6
			c-1.9,5.2-3.7,10.2-5.6,14.9c-1.9,4.7-2.8,8.9-2.8,12.7c0,3.2,0.8,5.4,2.3,6.7c1.5,1.2,3.2,1.9,4.9,1.9c3.9,0,8.5-2,13.7-6
			c5.2-4,10.4-9.3,15.5-15.9c5.1-6.6,9.3-13.6,12.7-21.1l5.1,4.8c-3.9,8.9-8.6,17.1-14.1,24.5c-5.5,7.5-11.6,13.4-18.3,17.7
			c-6.7,4.4-13.7,6.5-21.2,6.5c-6.8,0-12-1.8-15.6-5.3c-3.6-3.6-5.5-8-5.5-13.3c0-3.7,0.7-7.8,2-12.1c1.3-4.4,2.6-8.8,3.9-13.5
			c1.2-4.6,1.9-8.9,1.9-12.8c0-4.1-0.8-7-2.5-8.8c-1.7-1.8-4-2.7-6.8-2.7c-4.3,0-8.1,1.7-11.6,5.2s-6.6,8-9.5,13.5
			c-2.8,5.5-5.5,11.3-8,17.5c-2.5,6.1-4.9,12-7.3,17.5c-2.4,5.5-4.9,10-7.5,13.5c-2.6,3.5-5.4,5.2-8.4,5.2c-2.7,0-4.8-1.3-6.5-4
			c-1.7-2.7-3.1-5.9-4.1-9.6s-1.8-7.4-2.1-11.1c-0.4-3.6-0.5-6.4-0.5-8.4c-7.1,10.3-15.4,18.7-24.9,25.2
			C575,252.4,564.9,255.6,554.3,255.6z M562,242.3c8.9,0,17.8-3.9,26.8-11.6c9-7.7,16.8-18.4,23.3-31.9c1.1-5.3,2.2-10.4,3.5-15.2
			c1.2-4.8,2.8-10,4.8-15.7c-5.3,1.1-10.5,1.9-15.5,2.4c-5,0.5-9.9,0.8-14.7,0.8s-9.6-0.3-14.4-0.8c-4.8-0.5-9.7-1.2-14.7-2.1
			c-3.9,8.7-7.1,17.5-9.6,26.4c-2.5,8.9-3.7,18-3.7,27.2c0,7.3,1,12.5,3.1,15.7C553,240.7,556.7,242.3,562,242.3z M648.4,146.2
			c5.2-4.4,10-9.4,14.4-14.9c4.4-5.5,8.4-11.2,11.9-16.9c3.5-5.8,6.4-11.3,8.8-16.5c2.4-5.2,4-9.8,4.9-13.7c0.5-2.5,0.8-4.4,0.8-5.9
			c-1.4,0.4-3.7,2.3-6.8,5.9c-3.1,3.6-6.7,8.4-10.8,14.5c-4.1,6.1-8.2,13.3-12.3,21.3C655.3,128,651.7,136.8,648.4,146.2z"/>
		<path class="st4" d="M789.3,250.3c-6.6,0-11.9-1.7-16-5.2c-4.1-3.5-6.1-8.1-6.1-14c0-5,1.2-10.3,3.7-16c2.5-5.7,5-11.3,7.6-16.8
			c2.6-5.5,3.9-10.4,3.9-14.7c0-4.1-1.3-7.5-4-10.3c-2.7-2.8-5.8-5-9.3-6.8c-3.9,9.8-8.3,19.3-13.2,28.4
			c-4.9,9.2-8.9,16.3-11.9,21.5l-4-7.7c2.5-4.6,5.8-11.2,9.9-19.7c4.1-8.5,8-18.1,11.7-28.6c-1.8-1.8-2.7-4.2-2.7-7.2
			c0-4.6,1.4-9,4.3-13.1c2.8-4.1,5.6-6.1,8.3-6.1c2.1,0,3.7,1.2,4.7,3.6c1,2.4,1.5,4,1.5,4.9c0,0.9-0.4,2.5-1.2,4.8
			c-0.8,2.3-1.4,4-1.7,5.1c0.2,2,1.7,3.9,4.7,5.7c2.9,1.9,6.3,4,10,6.5c3.7,2.5,7,5.6,9.9,9.3c2.8,3.7,4.3,8.5,4.3,14.1
			c0,5.2-1.2,10.4-3.5,15.7c-2.3,5.3-4.6,10.3-6.9,14.9c-2.3,4.6-3.5,8.6-3.5,12c0,2.5,0.7,4.1,2,4.9s2.9,1.2,4.7,1.2
			c4.3,0,8.7-1.3,13.3-3.9c4.6-2.6,9.2-5.9,13.6-10c4.4-4.1,8.4-8.4,11.7-12.9c3.4-4.5,6-8.7,7.7-12.4l6.4,4.8
			c-3.4,7.7-8.3,15.2-14.7,22.5c-6.4,7.4-13.5,13.4-21.3,18.1C805.2,247.9,797.3,250.3,789.3,250.3z"/>
		<path class="st4" d="M959,256.4c-10.9,0-19.2-2.9-25.1-8.7s-9.3-12.8-10.1-20.9c-7.7,8.9-16.4,15.8-26.1,20.8
			c-9.8,5-19.7,7.5-29.6,7.5c-11.6,0-20.4-3.1-26.5-9.2c-6.1-6.1-9.2-13.7-9.2-22.8c0-7.8,2-16.1,6-24.8c4-8.7,9.4-16.9,16.1-24.7
			c6.8-7.7,14.2-14,22.4-18.9c8.2-4.9,16.5-7.3,25.1-7.3c4.6,0,8.9,1.2,12.9,3.5c4,2.3,6,7,6,14.1c0,6.6-2,12.8-5.9,18.5
			c-3.9,5.8-9.2,10.9-15.7,15.3c-6.6,4.4-13.8,8.1-21.7,10.9c-7.9,2.8-15.9,4.7-23.9,5.6c-0.2,0.7-0.3,1.6-0.4,2.8
			c-0.1,1.2-0.1,2.4-0.1,3.9c0,3.2,0.5,6.4,1.6,9.7c1.1,3.3,3.1,6.1,6,8.4c2.9,2.3,7.3,3.5,13.2,3.5c9.4,0,18.6-3.1,27.6-9.2
			c9-6.1,16.9-13.8,23.6-23.1c1.6-7.3,4.4-14.5,8.5-21.6c4.1-7.1,9.1-13.6,15.1-19.5c6-5.9,12.4-10.6,19.5-14.1
			c7-3.6,14.2-5.3,21.5-5.3c4.8,0,9.2,1.2,13.2,3.5c4,2.3,6,7.1,6,14.4c0,8.7-3.1,16.5-9.2,23.2c-6.1,6.8-14.1,12.2-23.7,16.4
			c-9.7,4.2-20,6.9-30.8,8.1c-0.2,0.9-0.3,1.8-0.4,2.8c-0.1,1-0.1,2.2-0.1,3.6c0,3.2,0.5,6.5,1.5,9.9c1,3.4,2.9,6.3,5.7,8.7
			c2.8,2.4,7.1,3.6,12.8,3.6c7.6,0,15.3-2.2,23.1-6.7c7.7-4.4,14.9-10.3,21.6-17.5c6.7-7.2,12.1-15,16.4-23.3l4.8,3.7
			c-4.8,10.7-11,20.1-18.5,28.4c-7.6,8.3-15.9,14.8-24.9,19.6C978,254,968.6,256.4,959,256.4z M856.6,206.8c5-1.8,10.3-4.1,15.9-7.1
			c5.6-2.9,10.9-6.3,16-10.1c5.1-3.8,9.2-7.9,12.4-12.3c3.2-4.4,4.8-8.8,4.8-13.5c0-1.4-0.3-2.5-0.9-3.3c-0.6-0.8-1.9-1.2-3.9-1.2
			c-3.7,0-7.8,1.4-12.1,4.1c-4.4,2.8-8.6,6.4-12.8,11.1c-4.2,4.6-8,9.7-11.3,15.3C861.2,195.4,858.5,201.1,856.6,206.8z
			 M948.1,206.8c4.6-1.6,9.6-3.6,14.8-6c5.2-2.4,10.2-5.2,14.8-8.4c4.6-3.2,8.4-6.8,11.5-10.8c3-4,4.5-8.4,4.5-13.2
			c0-2.1-0.4-3.6-1.1-4.4c-0.7-0.8-2-1.2-4-1.2c-5,0-10.1,2.1-15.5,6.3c-5.3,4.2-10.2,9.6-14.7,16.3
			C954,192,950.6,199.1,948.1,206.8z"/>
	</g>
	<g>
		<g>
			<g>
				<path class="st4" d="M267.6,138.7l-98.3,44.2c-3.9,1.8-8.5,0-10.3-3.9s0-8.5,3.9-10.3l98.3-44.2c3.9-1.8,8.5,0,10.3,3.9
					C273.3,132.3,271.5,136.9,267.6,138.7"/>
				<path class="st4" d="M155.3,161.7l-123-75.3c-3-1.8-6.9-0.9-8.7,2.1c-1.8,3-0.9,6.9,2.1,8.7l123,75.3
					C149.5,168.3,151.8,164.4,155.3,161.7"/>
				<path class="st4" d="M171.6,179.1c1.8-3,0.9-6.9-2.1-8.7l-4.4-2.7l-2.1,1c-3.9,1.7-5.6,6.3-4,10.2l3.8,2.3
					C165.8,183,169.8,182.1,171.6,179.1"/>
				<path class="st4" d="M83.5,120.3c-2-0.7-3.4-0.9-3.6-1c-1.7-0.3-2.9-2.1-2.6-3.9c0.1-0.5,0.2-0.9,0.4-1.2L45.4,94.4
					c0,0.5-0.2,1.1-0.5,1.5l-0.3,0.4c-0.8,1.4-2.5,2-4,1.3c-2.1-1-4.3-1.5-6.6-1.5c-2.6,0-5,0.7-7.2,1.8l76.6,46.8
					C102.5,128.6,89.8,122.4,83.5,120.3"/>
				<path class="st4" d="M112,201.5c-0.7-1.7,0.1-3.7,1.8-4.4c1.6-0.7,3.5,0.1,4.1,1.9c0.7,1.8,1.4,3.4,2.2,5
					c3.2,6.1,7.5,10.8,12.2,14.5c0.3-0.3,0.6-0.7,0.9-1.1c4.1-5.3,11.1-18.2,4.5-39.7v-0.1L20.5,105.8c-0.2-0.1-0.4-0.3-0.6-0.4
					c-1.2,2.4-1.9,5.1-1.9,8c0,9.9,4.4,14.3,7.1,16.4c0.4,0.2,0.8,0.4,1.1,0.8c0.1,0.1,1.3,1.3,3.5,2.2c3.4,1.5,9.2,2.7,17.6-0.6
					c2.1-0.8,4.3-1.8,6.6-3.2c1.5-0.9,3.5-0.3,4.3,1.3s0.3,3.7-1.3,4.6c-7.9,4.6-14.5,6.1-19.8,6.1c-6,0-10.3-2-12.8-3.6
					c-0.7-0.1-1.4-0.2-2-0.2c-8.1,0-14.7,7-14.7,15.7c0,7.7,5.2,14.2,12.3,15.4c1.6,0.3,2.7,1.7,2.7,3.4c0,0.8-0.3,2.7-2.9,3.3
					c-6,1.3-19.8,6.4-19.8,24.2c0,13.2,10.1,24,22.5,24c1.1,0,2.2-0.1,3.5-0.3c6.1-3.4,19-6.3,27.1,5.3c1.1,1.5,0.8,3.6-0.6,4.7
					c-0.6,0.5-1.2,0.7-1.9,0.7c-1,0-1.9-0.5-2.5-1.4c-0.9-1.2-1.8-2.2-2.8-3c-4-3.2-8.6-2.9-11.9-2.1c-2.7,0.7-4.6,1.8-4.8,1.9
					c-0.1,0.1-0.2,0.1-0.3,0.1c-0.1,0.1-0.2,0.2-0.3,0.2c-2.2,1.7-9,7-9,15.9c0,9.2,7,16.6,15.6,16.6c2.6,0,5.1-0.7,7.4-2
					c1.5-0.8,3.3-0.3,4.2,1.1l0.4,0.6c0.8,1.3,0.7,3-0.3,4.2c-2.6,2.9-4,6.7-4,10.7c0,8.6,6.6,15.7,14.7,15.7c2.5,0,5-0.7,7.2-2
					c1.9-5.5,6.4-14.3,17.1-18.9c1.6-0.7,3.5,0.1,4.1,1.9c0.7,1.7-0.1,3.7-1.8,4.4c-3.5,1.5-6.1,3.6-8.2,5.8c-0.9,1-1.7,2-2.3,3
					c-1.4,2.1-2.4,4.2-2.9,5.9c0,0.3,0,0.6-0.1,0.9c-0.6,2.2-2.1,8.8-1.3,12.7c2.2,11.5,11.5,18.9,23.7,18.9c8.1,0,13.3-3,16.1-4.6
					c0.2-0.1,0.4-0.3,0.7-0.4c1.2-6.1,7-23,34-27.7c1.7-0.3,3.4,0.9,3.7,2.8c0.3,1.8-0.9,3.6-2.6,3.9c-2.2,0.4-4.3,0.9-6.2,1.4
					c-15.3,4.5-20.4,13.6-22,18.7c-0.7,2-0.8,3.4-0.8,3.6v0.2v0.2c-0.3,1.5-0.4,3.1-0.4,4.6c0,13.2,10.1,23.9,22.4,23.9
					c10.6,0,19.8-8,22-19l0,0c0.1-3,0.2-44,0.2-95.3C150,235.7,122.2,228.7,112,201.5 M66.4,202.9c-0.5,1.3-1.7,2.1-2.9,2.1
					c-0.4,0-0.8-0.1-1.2-0.3c-1.6-0.7-2.4-2.7-1.7-4.4c0.9-2.4,1.5-4.7,1.8-6.9c1-7-0.5-12.8-2.3-16.8c-0.9-2-1.8-3.5-2.4-4.5
					c-10.1,2.6-17.2,9.9-20.8,14.2c-1.5,1.8-2.4,3.2-2.5,3.4c-0.6,1-1.6,1.5-2.6,1.5c-0.6,0-1.2-0.2-1.8-0.6c-1.5-1-1.9-3.1-0.9-4.7
					c0.2-0.2,10.9-17,29-20.9c0.2-0.1,0.4-0.1,0.6-0.1c7.5-1.5,16.2-0.7,25.9,4.4c1.6,0.8,2.2,2.9,1.5,4.5c-0.8,1.7-2.7,2.4-4.3,1.5
					c-1.2-0.6-2.3-1.1-3.4-1.6c-5-2.1-9.6-2.9-13.8-2.8c0.9,1.7,1.8,3.7,2.6,6.1C69.3,183.7,70.3,192.6,66.4,202.9 M74.1,220.7
					L74.1,220.7c-1.8,0-3.2-1.4-3.3-3.3c-0.1-1.9,1.3-3.4,3.1-3.5c0.2,0,1.8-0.1,4-0.7c4.1-1.2,10.2-4.3,12-12.7
					c0.3-1.2,0.4-2.6,0.5-4c0.1-1.9,1.5-3.3,3.3-3.2s3.1,1.7,3,3.5C96,215.1,81.6,220.4,74.1,220.7 M126.4,249.2
					c0.2,0.2,0.4,0.4,0.6,0.6c5,5.6,9,13.4,10.2,24.3c0.2,1.9-1,3.6-2.8,3.8c-0.1,0-0.3,0-0.4,0c-1.6,0-2.9-1.3-3.1-3
					c-0.2-1.4-0.4-2.7-0.6-3.9c-1-5-2.7-9.1-4.9-12.5c-0.8,1.6-1.8,3.4-3.1,5.2c-3.7,5.2-9.8,10.7-19.5,12.8c-0.2,0-0.4,0.1-0.6,0.1
					c-1.5,0-2.8-1.1-3.1-2.7c-0.3-1.8,0.8-3.6,2.5-4c2.4-0.5,4.6-1.3,6.5-2.3c5.2-2.6,8.5-6.6,10.5-10c1.1-1.9,1.8-3.5,2.3-4.7
					c-7-6.9-15.8-9.2-20.9-10c-2.3-0.3-3.8-0.4-4.1-0.4c-1.8,0-3.2-1.5-3.2-3.4s1.4-3.4,3.2-3.4l0,0
					C96.1,235.7,114.1,236.1,126.4,249.2"/>
				<path class="st4" d="M157.6,189.7l-12.1-7.4c3.6,17.4-0.9,29.4-5.2,36.2c-0.9,1.5-1.8,2.7-2.6,3.7c6.6,4,13.2,6.2,18,7.4
					c1.3,0.3,2.4,0.6,3.3,0.8c0-12.9,0-26.3,0-39.8C158.6,190.3,158.1,190,157.6,189.7"/>
				<path class="st4" d="M120.3,128.5c15.5,0.1,23.3,10.6,26.4,16.1l12.5,7.6c0-59.7,0-114.2,0-127.1v-0.8
					c0-13.4-10.3-24.4-22.9-24.4s-22.9,10.9-22.9,24.4c0,2.6,0.4,5.1,1.2,7.6c0.1,0.3,0.1,0.6,0.1,0.9c0.4,0.9,1,2.2,1.9,3.6
					c2.1,3.4,5.8,7.3,11.4,8c1.3,0.2,2.7,0.2,4.2-0.1c1.7-0.3,3.3,1,3.6,2.9c0.2,1.9-1,3.6-2.7,3.8c-1.1,0.2-2.2,0.3-3.3,0.3
					c-12,0-19-10.4-21.3-16.9c-1.3-1.3-4.9-4.1-10.9-4.1c-0.7,0-1.5,0-2.3,0.1c-9.9,1.1-16.8,8.3-16.8,17.6c0,1.2,0.1,2.5,0.4,3.7
					c2.7,2.8,11,12.7,9.7,28.4c-0.1,1.8-1.5,3.1-3.2,3.1c-0.1,0-0.2,0-0.3,0c-1.7-0.2-3-1.8-2.9-3.7c0.9-11.2-4.1-18.7-6.7-21.8
					c-0.6-0.1-1.1-0.5-1.5-0.9c-0.1-0.2-4.2-4.3-12.6-4.3c-1.1,0-2.3,0.1-3.5,0.2c-11.5,1.5-20.1,11.4-20.1,23c0,0.8,0,1.5,0.1,2.3
					L120.3,128.5z M117.7,76.5c0.2,0,15.8,0.3,26.4,11.7c0.2,0.2,0.3,0.3,0.5,0.5c4.3,4.8,7.7,11.6,8.8,21c0.2,1.9-1,3.6-2.8,3.8
					c-0.1,0-0.3,0-0.4,0c-1.6,0-2.9-1.3-3.1-3c-0.2-1.4-0.4-2.7-0.7-4c-0.8-3.6-2-6.6-3.5-9.1c-0.6,1.2-1.4,2.4-2.3,3.7
					c-3.2,4.5-8.5,9.3-16.9,11c-0.2,0-0.4,0.1-0.6,0.1c-1.5,0-2.8-1.1-3.1-2.7c-0.3-1.8,0.8-3.6,2.5-4c2.8-0.6,5.2-1.6,7.2-2.9
					c2.6-1.6,4.5-3.6,5.9-5.6c0.1-0.1,0.2-0.3,0.3-0.4c1.3-1.9,2.1-3.7,2.6-4.9c-5.5-5.3-12.3-7.3-16.6-8.1
					c-2.3-0.4-3.9-0.4-4.2-0.4c-1.8,0-3.2-1.6-3.1-3.4C114.5,78,116,76.5,117.7,76.5"/>
				<path class="st4" d="M267.6,138.7c3.9-1.8,5.7-6.4,3.9-10.3c-1.3-2.9-4.1-4.6-7.1-4.6c-1.1,0-2.1,0.2-3.2,0.7l-31.2,14
					c-0.8,2.9-1.3,6.2-1.1,9.9c0,1.1,0.1,2.3,0.3,3.5c0.2,1.9-1,3.6-2.7,3.8c-0.1,0-0.3,0-0.4,0c-1.6,0-2.9-1.2-3.1-2.9
					c-0.5-4.1-0.5-7.8-0.1-11.2L173.3,164c0,5.7,0,11.4,0,17.1l15.8-7.1c0.5-1.6,1.1-3.3,1.8-4.9c0.7-1.7,2.6-2.5,4.2-1.8
					c1.2,0.6,2,1.8,1.9,3.2L267.6,138.7z"/>
				<path class="st4" d="M184.1,148.2c0-0.1,0-0.1,0.1-0.2c0.1-0.2,7.4-20.4,29.8-19.4c1.8,0.1,3.1,1.7,3,3.5c0,0.5-0.2,1-0.4,1.4
					l10.7-4.8c8.2-13,23.9-16,24.1-16.1c1.7-0.3,3.4,0.9,3.7,2.8c0,0.3,0,0.5,0,0.8l2-0.9c2.3-1,4.8-1.6,7.3-1.6l0,0
					c7,0,13.4,4.1,16.2,10.5c1,2.1,1.5,4.4,1.6,6.7c1,0.5,2,0.9,2.9,1.3c8.4,3.2,14.2,2.1,17.6,0.6c2.2-1,3.3-2.1,3.5-2.2
					c0.3-0.3,0.7-0.6,1.1-0.8c2.7-2.1,7.1-6.5,7.1-16.4c0-9.5-7.2-17.1-16.1-17.1c-2.3,0-4.5,0.5-6.6,1.5c-1.4,0.7-3.1,0.1-4-1.3
					l-0.3-0.4c-0.8-1.4-0.6-3.2,0.6-4.3c4.3-4.1,6.7-9.8,6.7-15.9c0-11.6-8.7-21.5-20.1-23c-1.2-0.2-2.3-0.2-3.5-0.2
					c-8.4,0-12.5,4.2-12.6,4.3c-0.4,0.5-1,0.8-1.5,0.9c-2.6,3.1-7.7,10.7-6.7,21.8c0.2,1.9-1.1,3.5-2.9,3.7c-0.1,0-0.2,0-0.3,0
					c-1.6,0-3-1.3-3.2-3.1c-1.3-15.7,7-25.7,9.7-28.4c0.2-1.2,0.4-2.5,0.4-3.7c0-9.3-6.9-16.5-16.8-17.6c-0.8-0.1-1.5-0.1-2.3-0.1
					c-6,0-9.6,2.8-10.9,4.1c-2.4,6.5-9.3,16.9-21.3,16.9c-1.1,0-2.2-0.1-3.3-0.3c-1.7-0.3-2.9-2-2.7-3.8c0.2-1.9,1.9-3.2,3.6-2.9
					c1.5,0.2,2.9,0.2,4.2,0.1c5.6-0.7,9.3-4.7,11.4-8c0.9-1.4,1.5-2.7,1.9-3.6c0-0.3,0.1-0.6,0.1-0.9c0.8-2.5,1.2-5.1,1.2-7.6
					C219,10.9,208.8,0,196.2,0s-22.9,10.9-22.9,24.4v0.8c0,12.9,0,67.9,0,127.9L184.1,148.2z M178.9,109.8c1.1-9.4,4.5-16.2,8.8-21
					c0.1-0.2,0.3-0.4,0.5-0.5c10.6-11.4,26.2-11.7,26.4-11.7c1.8-0.1,3.2,1.5,3.2,3.4s-1.4,3.4-3.1,3.4c-0.3,0-1.8,0-4.2,0.4
					c-4.3,0.7-11.1,2.7-16.6,8.1c0.5,1.3,1.3,3,2.6,4.9c0.1,0.1,0.2,0.3,0.3,0.4c1.4,1.9,3.3,3.9,5.9,5.6c2,1.3,4.3,2.3,7.2,2.9
					c1.7,0.4,2.8,2.1,2.5,4c-0.3,1.6-1.6,2.7-3.1,2.7c-0.2,0-0.4,0-0.6-0.1c-8.4-1.8-13.7-6.5-16.9-11c-0.9-1.3-1.7-2.6-2.3-3.7
					c-1.5,2.6-2.7,5.6-3.5,9.1c-0.3,1.3-0.5,2.6-0.7,4c-0.2,1.7-1.6,3-3.2,3c-0.1,0-0.3,0-0.4,0
					C179.9,113.3,178.7,111.6,178.9,109.8"/>
				<path class="st4" d="M306.4,223c1.3,0.2,2.4,0.3,3.5,0.3c12.4,0,22.5-10.8,22.5-24c0-17.9-13.9-22.9-19.8-24.2
					c-2.5-0.6-2.9-2.5-2.9-3.3c0-1.7,1.1-3.2,2.7-3.4c7.1-1.3,12.3-7.7,12.3-15.4c0-8.6-6.6-15.7-14.7-15.7c-0.6,0-1.2,0.1-2,0.2
					c-2.5,1.6-6.8,3.6-12.8,3.6c-4,0-8.7-0.9-14.1-3.2c0,0,0,0,0,0.1c-1.7,4.4-5,8-9.3,9.9l-78.5,35.3c-4,18.3,2.2,29.4,5.9,34.3
					c0.3,0.4,0.6,0.8,0.9,1.1c4.7-3.7,9-8.4,12.2-14.5c0.8-1.6,1.6-3.2,2.2-5c0.7-1.7,2.5-2.6,4.1-1.9c1.6,0.7,2.4,2.7,1.8,4.4
					c-10.3,27.2-38,34.2-47.1,35.7c0,51.3,0.1,92.3,0.2,95.3l0,0c2.1,11,11.4,19,22,19c12.4,0,22.4-10.7,22.4-23.9
					c0-1.5-0.1-3-0.4-4.6v-0.2v-0.2c0-0.2-0.1-1.6-0.8-3.6c-1.7-5.1-6.8-14.2-22-18.7c-1.9-0.6-3.9-1-6.2-1.4
					c-1.7-0.3-2.9-2.1-2.6-3.9c0.3-1.8,1.9-3.1,3.7-2.8c26.9,4.8,32.7,21.6,34,27.7c0.2,0.1,0.4,0.2,0.7,0.4c2.8,1.6,8,4.6,16.1,4.6
					c12.2,0,21.5-7.4,23.7-18.9c0.7-3.9-0.7-10.5-1.3-12.7c-0.1-0.3-0.1-0.6-0.1-0.9c-0.6-1.7-1.5-3.8-2.9-5.9c-0.7-1-1.4-2-2.3-3
					c-2-2.2-4.7-4.3-8.2-5.8c-1.6-0.7-2.4-2.7-1.8-4.4c0.7-1.7,2.5-2.6,4.1-1.9c10.7,4.6,15.2,13.4,17.1,18.9c2.2,1.3,4.7,2,7.2,2
					c8.1,0,14.7-7,14.7-15.7c0-4-1.4-7.8-4-10.7c-1-1.1-1.1-2.9-0.3-4.2l0.4-0.6c0.9-1.5,2.7-2,4.2-1.1c2.2,1.3,4.8,2,7.4,2
					c8.6,0,15.6-7.4,15.6-16.6c0-8.9-6.8-14.2-9-15.9c-0.1-0.1-0.2-0.1-0.3-0.2c-0.1,0-0.2-0.1-0.3-0.1c-0.2-0.1-2.1-1.2-4.8-1.9
					c-3.4-0.9-8-1.1-12,2.1c-1,0.8-1.9,1.7-2.8,3c-0.6,0.9-1.6,1.3-2.5,1.3c-0.7,0-1.3-0.2-1.9-0.7c-1.4-1.1-1.7-3.3-0.6-4.7
					C287.5,216.7,300.3,219.6,306.4,223 M236.6,242.5c-0.3,0-1.8,0-4.1,0.4c-5.1,0.8-13.9,3-20.9,10c0.4,1.2,1.2,2.9,2.3,4.7
					c2,3.4,5.3,7.3,10.5,10c1.9,1,4.1,1.8,6.5,2.3c1.7,0.4,2.8,2.1,2.5,4c-0.3,1.6-1.6,2.7-3.1,2.7c-0.2,0-0.4,0-0.6-0.1
					c-9.7-2-15.8-7.6-19.5-12.8c-1.3-1.8-2.3-3.6-3.1-5.2c-2.1,3.4-3.8,7.5-4.9,12.5c-0.3,1.3-0.5,2.6-0.6,3.9c-0.2,1.7-1.6,3-3.2,3
					c-0.1,0-0.3,0-0.4,0c-1.7-0.2-3-1.9-2.8-3.8c1.3-10.9,5.2-18.7,10.2-24.3c0.2-0.2,0.3-0.4,0.6-0.6
					c12.3-13.2,30.3-13.6,30.5-13.6l0,0c1.7,0,3.2,1.5,3.2,3.4C239.8,240.9,238.4,242.4,236.6,242.5 M258.4,220.7L258.4,220.7
					c-7.6-0.3-22-5.6-22.7-23.9c-0.1-1.9,1.3-3.5,3-3.5c1.8-0.1,3.2,1.4,3.3,3.2c0.1,1.5,0.2,2.8,0.5,4c1.8,8.3,7.9,11.5,12,12.7
					c2.2,0.6,3.8,0.7,4,0.7c1.8,0.1,3.1,1.6,3.1,3.5C261.5,219.2,260.1,220.7,258.4,220.7 M274.8,172c-0.7,1-1.6,2.5-2.4,4.5
					c-1.8,4-3.3,9.9-2.3,16.8c0.3,2.2,0.9,4.5,1.8,6.9c0.7,1.7-0.1,3.7-1.7,4.4c-0.4,0.2-0.8,0.3-1.2,0.3c-1.3,0-2.4-0.8-2.9-2.1
					c-3.9-10.3-2.9-19.2-0.8-25.6c0.8-2.4,1.7-4.5,2.6-6.1c-4.2-0.1-8.8,0.7-13.8,2.8c-1.1,0.5-2.3,1-3.4,1.6
					c-1.6,0.8-3.5,0.1-4.3-1.5c-0.8-1.7-0.1-3.7,1.5-4.5c9.7-5.1,18.4-5.9,25.9-4.4c0.2,0,0.4,0.1,0.6,0.1
					c18.1,3.8,28.9,20.6,29,20.9c1,1.6,0.6,3.7-0.9,4.7c-0.5,0.4-1.2,0.6-1.8,0.6c-1,0-2-0.5-2.6-1.5c-0.2-0.2-1-1.6-2.5-3.4
					C292,181.9,284.9,174.6,274.8,172"/>
				<path class="st4" d="M208.1,135.7c-6.7,1.1-11.2,4.7-14,8l18.5-8.3C211.1,135.3,209.5,135.4,208.1,135.7"/>
				<path class="st4" d="M194.7,222.2c-0.8-1-1.7-2.2-2.6-3.7c-4-6.3-8.1-17-5.9-32.2l-12.7,5.7c-0.1,0-0.1,0-0.2,0.1
					c0,13,0,25.9,0,38.3c1-0.2,2.1-0.4,3.3-0.8C181.4,228.4,188.1,226.2,194.7,222.2"/>
			</g>
		</g>
	</g>
</g>
</svg>
